<svg xmlns="http://www.w3.org/2000/svg" width="1607.825" height="42.169" viewBox="0 0 1607.825 42.169">
  <path id="Path_25" data-name="Path 25" d="M792.863-184.492c48.572-.359,54.97,12.069,90.358,15.613s74.69,1.884,121.966,5.653,91.141,18.305,161.693,16.959S1338.95-170.753,1428.5-171.3c61.849-.379,134.041,13.967,175.147,25.428l5.673,1.717h-11.876l-8.657-2.268c-42.2-10.419-104.238-21.361-158.356-21.029-67.166.411-141.061,13.531-203.574,20.633l-27.179,2.664-3.045.3c-9.7.763-19.006,1.271-27.825,1.44a469.864,469.864,0,0,1-48.381-1.552l-1.78-.186-19.539-2.043c-34.231-4.261-62.446-10.823-91.994-13.179-47.276-3.769-86.579-2.109-121.966-5.653S843.366-181,794.794-180.645s-88.535,35.31-150.152,35.534-140.616-31.541-194.088-30.958-92.759,21.94-160.7,23.151-70.306-9.346-153.579-9.422A413.038,413.038,0,0,0,26.992-147.131L16.5-144.157H1.5l.157-.057c27.125-8.009,70.308-21.637,132.69-21.973,83.273.076,85.641,10.633,153.579,9.422s107.224-22.568,160.7-23.151,132.471,31.182,194.088,30.958S744.292-184.133,792.863-184.492Z" transform="translate(-1.5 184.5)" fill="rgba(23,183,186,0.9)" fill-rule="evenodd"/>
</svg>
