<svg xmlns="http://www.w3.org/2000/svg" width="163.792" height="171.747" viewBox="0 0 163.792 171.747">
  <g id="Group_150" data-name="Group 150" transform="translate(-165 -17.008)">
    <g id="Group_27" data-name="Group 27" transform="translate(165 17.008)">
      <g id="Group_34" data-name="Group 34" transform="translate(0 0)">
        <g id="Group_27-2" data-name="Group 27" transform="translate(0 129.076)">
          <path id="Path_152" data-name="Path 152" d="M25.395,184.965v-.091A16.231,16.231,0,0,1,42.05,168.446c6.454,0,10.607,2.708,13.4,6.59l-6.59,5.1c-1.805-2.257-3.882-3.7-6.9-3.7-4.424,0-7.538,3.746-7.538,8.35v.09c0,4.739,3.114,8.44,7.538,8.44,3.294,0,5.235-1.534,7.131-3.836l6.59,4.694c-2.98,4.108-7,7.131-13.992,7.131A16.043,16.043,0,0,1,25.395,184.965Z" transform="translate(-25.395 -168.446)" fill="#003e93"/>
          <path id="Path_153" data-name="Path 153" d="M61.471,169.17h8.8v31.594h-8.8Z" transform="translate(-29.967 -168.538)" fill="#003e93"/>
          <path id="Path_154" data-name="Path 154" d="M75.064,169.17h9.252L91.854,181.4l7.537-12.231h9.252v31.594H99.933V182.62l-8.079,12.366h-.181L83.639,182.71v18.054H75.064Z" transform="translate(-31.69 -168.538)" fill="#003e93"/>
          <path id="Path_155" data-name="Path 155" d="M116.825,169.17h25.411v7.447H125.491V181.4h15.164v6.906H125.491v5.01h16.97v7.447H116.825Z" transform="translate(-36.983 -168.538)" fill="#003e93"/>
          <path id="Path_156" data-name="Path 156" d="M148.2,169.17h12.186c11.283,0,17.829,6.5,17.829,15.617v.09c0,9.117-6.635,15.887-18.008,15.887H148.2ZM160.519,193c5.236,0,8.711-2.889,8.711-7.989v-.09c0-5.055-3.475-7.989-8.711-7.989h-3.565V193Z" transform="translate(-40.959 -168.538)" fill="#003e93"/>
          <path id="Path_157" data-name="Path 157" d="M181.379,195.991l4.875-5.823A16.274,16.274,0,0,0,196.5,193.96c2.346,0,3.61-.812,3.61-2.167v-.09c0-1.309-1.037-2.031-5.325-3.024-6.725-1.534-11.916-3.43-11.916-9.93v-.09c0-5.867,4.649-10.11,12.232-10.11,5.371,0,9.568,1.444,13,4.2l-4.379,6.184a15.843,15.843,0,0,0-8.846-3.114c-2.121,0-3.159.9-3.159,2.031v.09c0,1.444,1.084,2.076,5.461,3.07,7.266,1.579,11.78,3.926,11.78,9.839v.09c0,6.454-5.1,10.291-12.773,10.291A22.073,22.073,0,0,1,181.379,195.991Z" transform="translate(-45.164 -168.459)" fill="#003e93"/>
        </g>
        <g id="Group_28" data-name="Group 28" transform="translate(10.092 165.876)">
          <path id="Path_158" data-name="Path 158" d="M36.952,213.655v-.016a2.811,2.811,0,0,1,2.884-2.846,2.678,2.678,0,0,1,2.322,1.141l-1.141.884a1.464,1.464,0,0,0-1.2-.641,1.353,1.353,0,0,0-1.306,1.446v.016a1.353,1.353,0,0,0,1.306,1.462,1.5,1.5,0,0,0,1.235-.665l1.141.813a2.881,2.881,0,0,1-5.246-1.595Z" transform="translate(-36.952 -210.613)" fill="#c0031b"/>
          <path id="Path_159" data-name="Path 159" d="M43.6,210.65h1.548v1.094H43.6Zm.031,1.478H45.12v4.229H43.634Z" transform="translate(-37.795 -210.595)" fill="#c0031b"/>
          <path id="Path_160" data-name="Path 160" d="M46.511,215.1v-1.72h-.5v-1.2h.5v-1.071H48v1.071h.985v1.2H48v1.431c0,.3.133.422.407.422a1.309,1.309,0,0,0,.562-.141v1.165a2.118,2.118,0,0,1-1.032.242A1.239,1.239,0,0,1,46.511,215.1Z" transform="translate(-38.1 -210.654)" fill="#c0031b"/>
          <path id="Path_161" data-name="Path 161" d="M49.9,215.35v-.016c0-.875.665-1.329,1.657-1.329a3.261,3.261,0,0,1,1.016.164v-.07c0-.437-.274-.688-.844-.688a2.983,2.983,0,0,0-1.165.235l-.3-1.048a4.244,4.244,0,0,1,1.712-.328,2.17,2.17,0,0,1,1.61.516,1.764,1.764,0,0,1,.454,1.345v2.431h-1.47v-.438a1.592,1.592,0,0,1-1.244.532A1.284,1.284,0,0,1,49.9,215.35Zm2.69-.32v-.2a1.569,1.569,0,0,0-.579-.109c-.43,0-.68.211-.68.524v.016a.466.466,0,0,0,.524.461A.68.68,0,0,0,52.595,215.029Z" transform="translate(-38.594 -210.8)" fill="#c0031b"/>
          <path id="Path_162" data-name="Path 162" d="M55.33,214.262v-.016a1.984,1.984,0,0,1,1.86-2.213,1.617,1.617,0,0,1,1.3.61V210.65h1.485v5.707H58.489v-.563a1.57,1.57,0,0,1-1.291.657A1.98,1.98,0,0,1,55.33,214.262Zm3.181-.016v-.016a.868.868,0,1,0-1.727,0v.016a.869.869,0,1,0,1.727,0Z" transform="translate(-39.281 -210.595)" fill="#c0031b"/>
          <path id="Path_163" data-name="Path 163" d="M61.363,214.462v-.016a2.122,2.122,0,0,1,2.134-2.213,2.082,2.082,0,0,1,2.134,2.314c0,.094,0,.2-.008.3h-2.83a.874.874,0,0,0,.915.7,1.275,1.275,0,0,0,.938-.43l.821.679a2.214,2.214,0,0,1-1.837.86A2.128,2.128,0,0,1,61.363,214.462Zm2.877-.368c-.055-.469-.328-.766-.735-.766-.39,0-.657.3-.734.766Z" transform="translate(-40.046 -210.796)" fill="#c0031b"/>
          <path id="Path_164" data-name="Path 164" d="M67.012,210.65H68.5v5.707H67.012Z" transform="translate(-40.762 -210.595)" fill="#c0031b"/>
          <path id="Path_165" data-name="Path 165" d="M72.275,210.918H73.8v5.473H72.275Z" transform="translate(-41.429 -210.629)" fill="#c0031b"/>
          <path id="Path_166" data-name="Path 166" d="M75.068,212.328h1.485v.594a1.568,1.568,0,0,1,1.266-.688,1.385,1.385,0,0,1,1.438,1.556v2.767H77.772v-2.291c0-.461-.242-.712-.594-.712a.626.626,0,0,0-.625.712v2.291H75.068Z" transform="translate(-41.783 -210.796)" fill="#c0031b"/>
          <path id="Path_167" data-name="Path 167" d="M80.376,216.027l.555-.9a2.749,2.749,0,0,0,1.454.485c.258,0,.376-.079.376-.227v-.016c0-.164-.235-.234-.68-.36-.837-.218-1.5-.5-1.5-1.352v-.016c0-.9.72-1.4,1.7-1.4a3.308,3.308,0,0,1,1.743.493l-.508.938a2.862,2.862,0,0,0-1.251-.39c-.227,0-.344.086-.344.2v.016c0,.163.242.242.688.375.837.235,1.5.524,1.5,1.345v.016c0,.93-.7,1.415-1.727,1.415A3.415,3.415,0,0,1,80.376,216.027Z" transform="translate(-42.456 -210.797)" fill="#c0031b"/>
          <path id="Path_168" data-name="Path 168" d="M85.477,215.1v-1.72h-.5v-1.2h.5v-1.071h1.485v1.071h.985v1.2h-.985v1.431c0,.3.133.422.407.422a1.309,1.309,0,0,0,.562-.141v1.165a2.117,2.117,0,0,1-1.031.242A1.239,1.239,0,0,1,85.477,215.1Z" transform="translate(-43.039 -210.654)" fill="#c0031b"/>
          <path id="Path_169" data-name="Path 169" d="M89.113,210.65h1.548v1.094H89.113Zm.031,1.478H90.63v4.229H89.144Z" transform="translate(-43.563 -210.595)" fill="#c0031b"/>
          <path id="Path_170" data-name="Path 170" d="M92.021,215.1v-1.72h-.5v-1.2h.5v-1.071h1.485v1.071h.985v1.2h-.985v1.431c0,.3.133.422.406.422a1.31,1.31,0,0,0,.563-.141v1.165a2.121,2.121,0,0,1-1.032.242A1.239,1.239,0,0,1,92.021,215.1Z" transform="translate(-43.868 -210.654)" fill="#c0031b"/>
          <path id="Path_171" data-name="Path 171" d="M95.621,215.109v-2.767h1.485v2.291c0,.461.242.711.6.711a.624.624,0,0,0,.617-.711v-2.291h1.485v4.229H98.325v-.579a1.556,1.556,0,0,1-1.266.672A1.385,1.385,0,0,1,95.621,215.109Z" transform="translate(-44.388 -210.809)" fill="#c0031b"/>
          <path id="Path_172" data-name="Path 172" d="M101.554,215.1v-1.72h-.5v-1.2h.5v-1.071h1.485v1.071h.985v1.2h-.985v1.431c0,.3.133.422.407.422a1.306,1.306,0,0,0,.562-.141v1.165a2.117,2.117,0,0,1-1.031.242A1.239,1.239,0,0,1,101.554,215.1Z" transform="translate(-45.076 -210.654)" fill="#c0031b"/>
          <path id="Path_173" data-name="Path 173" d="M104.859,214.462v-.016a2.122,2.122,0,0,1,2.134-2.213,2.082,2.082,0,0,1,2.134,2.314c0,.094,0,.2-.008.3h-2.83a.873.873,0,0,0,.915.7,1.277,1.277,0,0,0,.938-.43l.821.679a2.215,2.215,0,0,1-1.837.86A2.128,2.128,0,0,1,104.859,214.462Zm2.876-.368a.755.755,0,0,0-.734-.766c-.391,0-.657.3-.735.766Z" transform="translate(-45.559 -210.796)" fill="#c0031b"/>
          <path id="Path_174" data-name="Path 174" d="M112.754,214.462v-.016a2.342,2.342,0,0,1,4.675-.016v.016a2.342,2.342,0,0,1-4.675.016Zm3.228,0v-.016a.916.916,0,0,0-.9-.954.885.885,0,0,0-.883.938v.016a.916.916,0,0,0,.9.954A.885.885,0,0,0,115.982,214.462Z" transform="translate(-46.559 -210.796)" fill="#c0031b"/>
          <path id="Path_175" data-name="Path 175" d="M119.011,213.307h-.492v-1.164h.492v-.094a1.466,1.466,0,0,1,.36-1.094,1.446,1.446,0,0,1,1.1-.368,3.253,3.253,0,0,1,.969.117v1.048a1.752,1.752,0,0,0-.554-.086c-.274,0-.423.125-.423.4v.1h.969v1.141h-.946v3.042h-1.478Z" transform="translate(-47.29 -210.587)" fill="#c0031b"/>
          <path id="Path_176" data-name="Path 176" d="M124.973,210.918h1.6l1.305,2.119,1.306-2.119h1.6v5.473h-1.509v-3.143l-1.4,2.142h-.031l-1.392-2.126v3.127h-1.485Z" transform="translate(-48.108 -210.629)" fill="#c0031b"/>
          <path id="Path_177" data-name="Path 177" d="M132.448,214.462v-.016a2.121,2.121,0,0,1,2.134-2.213,2.082,2.082,0,0,1,2.134,2.314c0,.094,0,.2-.008.3h-2.83a.873.873,0,0,0,.915.7,1.277,1.277,0,0,0,.938-.43l.821.679a2.215,2.215,0,0,1-1.837.86A2.128,2.128,0,0,1,132.448,214.462Zm2.876-.368a.755.755,0,0,0-.734-.766c-.391,0-.657.3-.735.766Z" transform="translate(-49.055 -210.796)" fill="#c0031b"/>
          <path id="Path_178" data-name="Path 178" d="M137.882,214.262v-.016a1.983,1.983,0,0,1,1.86-2.213,1.614,1.614,0,0,1,1.3.61V210.65h1.485v5.707H141.04v-.563a1.567,1.567,0,0,1-1.29.657A1.98,1.98,0,0,1,137.882,214.262Zm3.181-.016v-.016a.868.868,0,1,0-1.727,0v.016a.869.869,0,1,0,1.727,0Z" transform="translate(-49.744 -210.595)" fill="#c0031b"/>
          <path id="Path_179" data-name="Path 179" d="M144.112,210.65h1.547v1.094h-1.547Zm.031,1.478h1.485v4.229h-1.485Z" transform="translate(-50.533 -210.595)" fill="#c0031b"/>
          <path id="Path_180" data-name="Path 180" d="M146.6,214.464v-.016a2.2,2.2,0,0,1,2.267-2.2,2,2,0,0,1,1.806.946l-1.008.751a.913.913,0,0,0-.79-.445.877.877,0,0,0-.829.938v.016a.878.878,0,0,0,.844.961,1.012,1.012,0,0,0,.813-.438l.993.72a2.1,2.1,0,0,1-1.884.969A2.183,2.183,0,0,1,146.6,214.464Z" transform="translate(-50.849 -210.797)" fill="#c0031b"/>
          <path id="Path_181" data-name="Path 181" d="M151.649,215.35v-.016c0-.875.665-1.329,1.657-1.329a3.251,3.251,0,0,1,1.016.164v-.07c0-.437-.273-.688-.844-.688a2.983,2.983,0,0,0-1.165.235l-.3-1.048a4.244,4.244,0,0,1,1.712-.328,2.172,2.172,0,0,1,1.61.516,1.767,1.767,0,0,1,.454,1.345v2.431h-1.47v-.438a1.594,1.594,0,0,1-1.244.532A1.284,1.284,0,0,1,151.649,215.35Zm2.689-.32v-.2a1.564,1.564,0,0,0-.578-.109c-.43,0-.68.211-.68.524v.016a.466.466,0,0,0,.524.461A.679.679,0,0,0,154.338,215.029Z" transform="translate(-51.489 -210.8)" fill="#c0031b"/>
          <path id="Path_182" data-name="Path 182" d="M157.289,210.65h1.485v5.707h-1.485Z" transform="translate(-52.204 -210.595)" fill="#c0031b"/>
          <path id="Path_183" data-name="Path 183" d="M162.042,215.564l.844-1.009a2.819,2.819,0,0,0,1.774.657c.406,0,.625-.141.625-.375v-.016c0-.226-.18-.352-.923-.523-1.164-.266-2.064-.595-2.064-1.72v-.016c0-1.017.805-1.751,2.119-1.751a3.444,3.444,0,0,1,2.251.727l-.758,1.071a2.746,2.746,0,0,0-1.533-.54c-.367,0-.547.156-.547.352v.016c0,.25.188.36.946.532,1.258.273,2.04.68,2.04,1.7v.016c0,1.118-.883,1.782-2.212,1.782A3.823,3.823,0,0,1,162.042,215.564Z" transform="translate(-52.806 -210.615)" fill="#c0031b"/>
          <path id="Path_184" data-name="Path 184" d="M168.057,214.464v-.016a2.2,2.2,0,0,1,2.267-2.2,2,2,0,0,1,1.806.946l-1.009.751a.91.91,0,0,0-.789-.445.877.877,0,0,0-.829.938v.016a.878.878,0,0,0,.844.961,1.012,1.012,0,0,0,.813-.438l.993.72a2.1,2.1,0,0,1-1.884.969A2.182,2.182,0,0,1,168.057,214.464Z" transform="translate(-53.568 -210.797)" fill="#c0031b"/>
          <path id="Path_185" data-name="Path 185" d="M173.348,210.65H174.9v1.094h-1.547Zm.031,1.478h1.485v4.229h-1.485Z" transform="translate(-54.239 -210.595)" fill="#c0031b"/>
          <path id="Path_186" data-name="Path 186" d="M175.836,214.462v-.016a2.122,2.122,0,0,1,2.134-2.213,2.082,2.082,0,0,1,2.134,2.314c0,.094,0,.2-.008.3h-2.83a.874.874,0,0,0,.915.7,1.277,1.277,0,0,0,.938-.43l.821.679a2.216,2.216,0,0,1-1.837.86A2.128,2.128,0,0,1,175.836,214.462Zm2.876-.368a.755.755,0,0,0-.734-.766c-.391,0-.657.3-.735.766Z" transform="translate(-54.554 -210.796)" fill="#c0031b"/>
          <path id="Path_187" data-name="Path 187" d="M181.449,212.328h1.485v.594a1.566,1.566,0,0,1,1.266-.688,1.386,1.386,0,0,1,1.438,1.556v2.767h-1.485v-2.291c0-.461-.242-.712-.594-.712a.626.626,0,0,0-.625.712v2.291h-1.485Z" transform="translate(-55.265 -210.796)" fill="#c0031b"/>
          <path id="Path_188" data-name="Path 188" d="M186.927,214.464v-.016a2.2,2.2,0,0,1,2.267-2.2,2,2,0,0,1,1.806.946l-1.009.751a.911.911,0,0,0-.789-.445.877.877,0,0,0-.829.938v.016a.878.878,0,0,0,.844.961,1.013,1.013,0,0,0,.813-.438l.993.72a2.1,2.1,0,0,1-1.885.969A2.182,2.182,0,0,1,186.927,214.464Z" transform="translate(-55.96 -210.797)" fill="#c0031b"/>
          <path id="Path_189" data-name="Path 189" d="M191.886,214.462v-.016a2.122,2.122,0,0,1,2.134-2.213,2.082,2.082,0,0,1,2.134,2.314c0,.094,0,.2-.008.3h-2.829a.873.873,0,0,0,.914.7,1.275,1.275,0,0,0,.938-.43l.821.679a2.215,2.215,0,0,1-1.837.86A2.128,2.128,0,0,1,191.886,214.462Zm2.877-.368c-.055-.469-.328-.766-.735-.766-.391,0-.657.3-.734.766Z" transform="translate(-56.588 -210.796)" fill="#c0031b"/>
          <path id="Path_190" data-name="Path 190" d="M197.132,216.027l.555-.9a2.749,2.749,0,0,0,1.454.485c.258,0,.375-.079.375-.227v-.016c0-.164-.234-.234-.68-.36-.837-.218-1.5-.5-1.5-1.352v-.016c0-.9.719-1.4,1.7-1.4a3.308,3.308,0,0,1,1.743.493l-.507.938a2.868,2.868,0,0,0-1.251-.39c-.226,0-.344.086-.344.2v.016c0,.163.243.242.688.375.837.235,1.5.524,1.5,1.345v.016c0,.93-.7,1.415-1.727,1.415A3.413,3.413,0,0,1,197.132,216.027Z" transform="translate(-57.253 -210.797)" fill="#c0031b"/>
        </g>
        <g id="Group_33" data-name="Group 33" transform="translate(14.026)">
          <g id="Group_31" data-name="Group 31" transform="translate(20.315)">
            <path id="Path_191" data-name="Path 191" d="M112.275,22.138A46.054,46.054,0,1,1,66.221,68.192a46.054,46.054,0,0,1,46.054-46.054m0-1.5A47.555,47.555,0,1,0,159.83,68.192,47.555,47.555,0,0,0,112.275,20.637Z" transform="translate(-64.72 -20.637)" fill="#003e93" fill-rule="evenodd"/>
            <path id="Path_192" data-name="Path 192" d="M114.24,37.593A32.564,32.564,0,1,1,81.676,70.157,32.564,32.564,0,0,1,114.24,37.593m0-1.456a34.02,34.02,0,1,0,34.02,34.02A34.02,34.02,0,0,0,114.24,36.137Z" transform="translate(-66.684 -22.601)" fill="#003e93" fill-rule="evenodd"/>
            <path id="Path_193" data-name="Path 193" d="M109.755,85.947l-.046-3.366c-.681.348-1.529.942-1.525,1.65,0,.728.814,1.331,1.571,1.716m6.012,9.031-.027,2.011a1.842,1.842,0,0,0,.662-1.143C116.422,95.532,116.149,95.236,115.767,94.978Zm-5.86,2.043-.028-2.064c-.4.264-.688.568-.668.89A1.885,1.885,0,0,0,109.906,97.021ZM115.937,82.6l-.046,3.332c.747-.386,1.533-.982,1.538-1.7C117.433,83.534,116.612,82.948,115.937,82.6Zm5.3,8a7.04,7.04,0,0,1,2.305,5.66A6.841,6.841,0,0,1,122.2,99.78a10.575,10.575,0,0,1-2.939,2.656q-.261.165-.527.318c-.3.172-.6.334-.9.489a6.265,6.265,0,0,1,.358,5.581,5.828,5.828,0,0,1-2.648,2.918c-.01.909-.018,1.819-.034,2.728-.024,1.45-.052,2.918-.159,4.365-.112,1.522-.273,3.662-2.255,3.908a2.159,2.159,0,0,1-.259.016,2.419,2.419,0,0,1-2.318-2.225,13.71,13.71,0,0,1-.2-1.669c-.11-1.458-.141-2.939-.166-4.4-.017-.9-.026-1.8-.037-2.7a5.958,5.958,0,0,1-2.885-3.489,6.213,6.213,0,0,1,.573-5.031c-.311-.156-.617-.318-.914-.49a11.047,11.047,0,0,1-3.465-2.973,6.858,6.858,0,0,1-1.347-3.519,7.042,7.042,0,0,1,2.3-5.657,7.564,7.564,0,0,1-1.141-11.685c-3.146-1.119-6.03-2.684-7.68-5.191a5.73,5.73,0,0,1-.762-4.923,5.857,5.857,0,0,1,4.487-3.834c-.155-.018-.313-.034-.472-.044a2.119,2.119,0,0,1-1.055-.35c-2.188.566-4.457.083-6.838-.148a2.1,2.1,0,0,1-1.31-.624c-3.955.48-7.717-.83-11.286-2.925a2.107,2.107,0,0,1-.883-1c-2.345-.727-3.7-2.388-5.417-5.019a2.158,2.158,0,0,1-.288-.661,6.169,6.169,0,0,1-2.76-4.023,2.109,2.109,0,0,1,1.991-2.563q1.67-.054,3.339-.116,6.128-.229,12.254-.561c2.915-.157,5.843-.321,8.754-.558,2-.163,4.053-.461,5.991.245a6.815,6.815,0,0,1,3.911,3.963,17.554,17.554,0,0,1,.935,3.069c.246,1.07.641,3.337,1.416,4.132a1.977,1.977,0,0,0,1.4.483,4.517,4.517,0,0,1-1.249-3.148,2.189,2.189,0,0,1,.058-.53,5.555,5.555,0,0,1-.293-1.785,5.352,5.352,0,1,1,10.7,0,5.577,5.577,0,0,1-.3,1.793,2.127,2.127,0,0,1,.06.5,4.572,4.572,0,0,1-1.209,3.172,1.949,1.949,0,0,0,1.362-.482c.775-.8,1.169-3.063,1.416-4.132a17.627,17.627,0,0,1,.934-3.069,6.819,6.819,0,0,1,3.912-3.963c1.938-.706,3.991-.408,5.991-.245,2.91.237,5.838.4,8.754.558q6.124.333,12.254.561,1.67.062,3.339.116a2.109,2.109,0,0,1,1.991,2.563,6.168,6.168,0,0,1-2.76,4.023,2.156,2.156,0,0,1-.287.661c-1.712,2.631-3.072,4.291-5.417,5.019a2.1,2.1,0,0,1-.884,1c-3.568,2.1-7.33,3.406-11.285,2.925a2.1,2.1,0,0,1-1.31.624c-2.381.231-4.651.713-6.838.148a2.123,2.123,0,0,1-1.056.35c-.167.01-.332.027-.5.046a5.855,5.855,0,0,1,4.477,3.831,5.73,5.73,0,0,1-.763,4.923c-1.7,2.582-4.675,4.131-7.679,5.192a8.039,8.039,0,0,1,2.239,5.7A7.726,7.726,0,0,1,121.238,90.6Z" transform="translate(-65.251 -23.874)" fill="#fff" fill-rule="evenodd"/>
            <rect id="Rectangle_6" data-name="Rectangle 6" width="2.696" height="12.088" transform="translate(46.224 33.422)" fill="#c0031b"/>
            <path id="Path_194" data-name="Path 194" d="M71.33,50.026c9.614-.308,19.991-.877,24.45-1.241,3.228-.263,6.156-.851,7.8,2.943,1.672,3.87.713,9.757,7,8.862v.873c-7.092.562-8.213-2.812-9.107-5.508-.707-2.131-1.293-3.895-3.986-3.576a18.522,18.522,0,0,0-2,.195c-2.6.318-7.664.939-14.9,1.345h0c-3.331.2-8.368.093-9.25-3.893" transform="translate(-65.558 -24.179)" fill="#c0031b" fill-rule="evenodd"/>
            <path id="Path_195" data-name="Path 195" d="M74.486,54.691a14.068,14.068,0,0,0,6.546.8h0c7.28-.41,12.351-1.03,14.949-1.349,1.155-.141,1.762-.231,1.778-.225l.108.045.111-.013c1.571-.187,2.2.686,2.682,1.93a77.163,77.163,0,0,1-12.9,2.835,48.441,48.441,0,0,1-6.358.468c-3.695-.01-4.819-1.267-6.916-4.489" transform="translate(-65.958 -24.855)" fill="#c0031b" fill-rule="evenodd"/>
            <path id="Path_196" data-name="Path 196" d="M80.9,60.451a44.748,44.748,0,0,0,7.789-.444,78.227,78.227,0,0,0,13.083-2.881l.065.2c.148.447.3.91.483,1.374a68.834,68.834,0,0,1-8.892,3.8c-4.382,1.561-8.525.31-12.528-2.041" transform="translate(-66.771 -25.262)" fill="#c0031b" fill-rule="evenodd"/>
            <path id="Path_197" data-name="Path 197" d="M94.333,64.067a73.664,73.664,0,0,0,10.045-4.2,7.606,7.606,0,0,0,.777,1.3c-.7.59-1.741,1.395-3.018,2.305-2.253,1.609-5,.867-7.8.595" transform="translate(-68.473 -25.609)" fill="#c0031b" fill-rule="evenodd"/>
            <path id="Path_198" data-name="Path 198" d="M103.283,64.845c1.535-1.078,2.789-2.037,3.594-2.718a5.853,5.853,0,0,0,1.134.877c-.259.332-.586.727-.97,1.172-1.2,1.388-1.842.785-3.759.67" transform="translate(-69.607 -25.895)" fill="#c0031b" fill-rule="evenodd"/>
            <path id="Path_199" data-name="Path 199" d="M115.21,69.235c-1.233-2.39-3.9-3.362-7.306-3.836.631-.713,1.143-1.327,1.5-1.8a12.4,12.4,0,0,0,5.8.665Z" transform="translate(-70.193 -26.082)" fill="#c0031b" fill-rule="evenodd"/>
            <path id="Path_200" data-name="Path 200" d="M161.366,50.026c-9.614-.308-19.991-.877-24.45-1.241-3.228-.263-6.156-.851-7.8,2.943-1.673,3.87-.713,9.757-7,8.862v.873c7.092.562,8.213-2.812,9.107-5.508.707-2.131,1.293-3.895,3.986-3.576a18.522,18.522,0,0,1,2,.195c2.6.318,7.664.939,14.894,1.345h0c3.331.2,8.368.093,9.25-3.893" transform="translate(-71.995 -24.179)" fill="#c0031b" fill-rule="evenodd"/>
            <path id="Path_201" data-name="Path 201" d="M160.107,54.691a14.072,14.072,0,0,1-6.547.8h0c-7.279-.41-12.35-1.03-14.948-1.349-1.156-.141-1.763-.231-1.778-.225l-.108.045-.111-.013c-1.571-.187-2.2.686-2.682,1.93a77.163,77.163,0,0,0,12.9,2.835,48.43,48.43,0,0,0,6.358.468c3.694-.01,4.819-1.267,6.916-4.489" transform="translate(-73.492 -24.855)" fill="#c0031b" fill-rule="evenodd"/>
            <path id="Path_202" data-name="Path 202" d="M154.384,60.451a44.748,44.748,0,0,1-7.789-.444,78.188,78.188,0,0,1-13.083-2.881l-.065.2c-.148.447-.3.91-.483,1.374a68.828,68.828,0,0,0,8.892,3.8c4.382,1.561,8.525.31,12.528-2.041" transform="translate(-73.369 -25.262)" fill="#c0031b" fill-rule="evenodd"/>
            <path id="Path_203" data-name="Path 203" d="M142.488,64.067a73.66,73.66,0,0,1-10.045-4.2,7.666,7.666,0,0,1-.777,1.3c.7.59,1.741,1.395,3.017,2.305,2.254,1.609,5,.867,7.805.595" transform="translate(-73.205 -25.609)" fill="#c0031b" fill-rule="evenodd"/>
            <path id="Path_204" data-name="Path 204" d="M134.422,64.845c-1.534-1.078-2.789-2.037-3.593-2.718a5.882,5.882,0,0,1-1.134.877c.259.332.586.727.97,1.172,1.2,1.388,1.841.785,3.758.67" transform="translate(-72.955 -25.895)" fill="#c0031b" fill-rule="evenodd"/>
            <path id="Path_205" data-name="Path 205" d="M122.122,69.235c1.233-2.39,3.9-3.362,7.306-3.836-.631-.713-1.143-1.327-1.505-1.8a12.4,12.4,0,0,1-5.8.665Z" transform="translate(-71.995 -26.082)" fill="#c0031b" fill-rule="evenodd"/>
            <path id="Path_206" data-name="Path 206" d="M121.766,56.4c.007,3.559-5.979,3.519-6.014,0h.121a3.35,3.35,0,0,0,5.772,0Z" transform="translate(-71.188 -25.169)" fill="#c0031b" fill-rule="evenodd"/>
            <path id="Path_207" data-name="Path 207" d="M118.725,49.916a3.367,3.367,0,1,1-3.242,3.365,3.306,3.306,0,0,1,3.242-3.365" transform="translate(-71.154 -24.348)" fill="#c0031b" fill-rule="evenodd"/>
            <path id="Path_208" data-name="Path 208" d="M120.076,82.4l.137-9.959h-2.381l.144,10.52c.665-.189,1.369-.375,2.1-.562m-.121,8.872.107-7.858c-.726.186-1.423.372-2.071.562l.107,7.843.541-.158C119.093,91.528,119.536,91.4,119.955,91.273Zm-.2,14.938.19-13.915c-.334.1-.679.2-1.03.3l-.8.234.2,14.314A10.664,10.664,0,0,1,119.751,106.211Zm-.1,7.644.089-6.5a7.313,7.313,0,0,0-1.409,1.09l.075,5.462c.038,3.614.054,10.076.631,10.076C119.608,123.908,119.588,117.432,119.646,113.855Z" transform="translate(-71.452 -27.203)" fill="#c0031b" fill-rule="evenodd"/>
            <path id="Path_209" data-name="Path 209" d="M120.9,71.895a1.933,1.933,0,0,1,.04.392c0,2.438-4.08,2.452-4.078,0a1.934,1.934,0,0,1,.04-.392c.143,1.545,3.7,1.506,4,0" transform="translate(-71.328 -27.133)" fill="#fff" fill-rule="evenodd"/>
            <path id="Path_210" data-name="Path 210" d="M120.639,71.962a.8.8,0,0,1,.035.237c-.034,1.759-3.491,1.77-3.458,0a.927.927,0,0,1,.034-.237c.121.932,3.139.908,3.389,0" transform="translate(-71.373 -27.142)" fill="#c0031b" fill-rule="evenodd"/>
            <path id="Path_211" data-name="Path 211" d="M118.08,92.128a17.933,17.933,0,0,1,5.1,1.792c3.453,2.036,4.019,5.227,2.277,7.587-2.14,2.9-6.038,3.512-8.408,5.419-2.009,1.616-2.993,5.231-.1,6.038-1.92.47-5.26-4.158-.563-7.714a35.593,35.593,0,0,1,3.342-2.09c1.268-.75,3.593-1.974,3.732-4.2.093-1.485-.928-2.907-4.149-3.915-1.476-.462-2.991-.761-4.475-1.168q-.612-.169-1.165-.367c1.234-.454,2.663-.871,3.993-1.259Zm-3.168-.839c.421.14.847.263,1.278.377a35.261,35.261,0,0,0-3.793,1.313c-6.691-3.178-5.313-9.913,1.826-12.541,4.355-1.6,10.144-2.215,14.562-4.551,5.367-2.838,1.354-5.008-1.788-3.587-.623,2.387-5.724,4.243-6.562,2.852-1.527-2.54,4.309-5.2,6.622-5.423,2.914-.276,6.056.469,6.711,2.659a3.621,3.621,0,0,1-.5,3.159c-3.362,5.107-13.753,5.74-18.931,7.849C109.594,85.324,110.119,89.7,114.912,91.289Z" transform="translate(-70.212 -26.852)" fill="#003e93"/>
            <path id="Path_212" data-name="Path 212" d="M117.6,106.973c1.937,1.593,2.926,5.185.038,5.99,1.765.432,4.726-3.439,1.554-6.829a17.291,17.291,0,0,0-1.591.839m4.208-25.914a13.9,13.9,0,0,0-1.437-.622c-4.355-1.6-10.143-2.215-14.562-4.551-5.368-2.838-1.354-5.008,1.788-3.587.623,2.387,5.725,4.243,6.562,2.852,1.528-2.54-4.309-5.2-6.621-5.423-2.915-.276-6.056.469-6.711,2.659a3.621,3.621,0,0,0,.5,3.159c2.728,4.144,10.084,5.342,15.527,6.773.8-.213,1.65-.425,2.518-.642C120.178,81.479,121,81.273,121.812,81.059Zm-2.126,10.229c-2.731.906-5.716,1.125-8.271,2.631-3.453,2.036-4.018,5.227-2.277,7.587,1.913,2.593,5.232,3.357,7.607,4.852a15.144,15.144,0,0,1,1.68-.938c-.071-.057-.144-.114-.219-.171a35.863,35.863,0,0,0-3.341-2.09c-1.269-.75-3.593-1.974-3.733-4.2-.093-1.485.928-2.907,4.149-3.915,1.476-.462,2.991-.761,4.475-1.168,8.193-2.249,8.579-8.614,3.257-12.123-1.134.311-2.283.6-3.4.876l-.891.224c.55.172,1.067.353,1.54.545C125,85.324,124.478,89.7,119.686,91.289Z" transform="translate(-69.276 -26.852)" fill="#003e93"/>
            <path id="Path_213" data-name="Path 213" d="M123.655,73.367c.368-.117.706-.09.754.061s-.212.368-.581.485-.706.091-.755-.06.212-.369.581-.486" transform="translate(-72.115 -27.311)" fill="#fff" fill-rule="evenodd"/>
            <path id="Path_214" data-name="Path 214" d="M114.5,73.367c-.369-.117-.706-.09-.754.061s.212.368.581.485.707.091.754-.06-.211-.369-.581-.486" transform="translate(-70.933 -27.311)" fill="#fff" fill-rule="evenodd"/>
            <path id="Path_215" data-name="Path 215" d="M74.152,65.5a1.476,1.476,0,1,1-1.476,1.476A1.476,1.476,0,0,1,74.152,65.5" transform="translate(-65.728 -26.324)" fill="#c0031b" fill-rule="evenodd"/>
            <path id="Path_216" data-name="Path 216" d="M163.811,65.5a1.476,1.476,0,1,1-1.476,1.476,1.476,1.476,0,0,1,1.476-1.476" transform="translate(-77.092 -26.324)" fill="#c0031b" fill-rule="evenodd"/>
            <g id="Group_29" data-name="Group 29" transform="translate(16.831 3.194)">
              <path id="Path_217" data-name="Path 217" d="M85.219,43.113l-.017-.019a4.562,4.562,0,0,1,.392-6.562,4.351,4.351,0,0,1,4.039-1.142l-.418,2.3a2.374,2.374,0,0,0-2.138.525,2.195,2.195,0,0,0-.005,3.16l.017.019a2.194,2.194,0,0,0,3.159.347,2.424,2.424,0,0,0,.769-2.141l2.258-.258a4.674,4.674,0,0,1-8.057,3.767Z" transform="translate(-83.993 -25.686)" fill="#003e93"/>
              <path id="Path_218" data-name="Path 218" d="M94.7,30.531l2.192-1.14,4.1,7.871L98.8,38.4Z" transform="translate(-85.351 -24.94)" fill="#003e93"/>
              <path id="Path_219" data-name="Path 219" d="M103.652,26.241l2.544-.527,2.769,2.932,1.375-3.793,2.544-.528,1.8,8.686-2.4.5-1.035-4.987-1.515,3.861-.051.01-2.908-2.917,1.03,4.964-2.358.489Z" transform="translate(-86.485 -24.298)" fill="#003e93"/>
              <path id="Path_220" data-name="Path 220" d="M121.371,24.294l7.079.885-.26,2.074-4.663-.582L123.361,28l4.224.527-.241,1.924-4.224-.528-.176,1.4,4.727.591-.258,2.074-7.141-.892Z" transform="translate(-88.591 -24.294)" fill="#003e93"/>
              <path id="Path_221" data-name="Path 221" d="M135.794,27.147l3.1,1.456c2.873,1.347,3.761,3.784,2.672,6.1l-.01.023c-1.089,2.321-3.586,3.251-6.482,1.893l-3.056-1.435Zm.288,7.537a2.178,2.178,0,0,0,3.172-.993l.012-.023A2.186,2.186,0,0,0,138,30.594l-.907-.425-1.919,4.089Z" transform="translate(-90.08 -24.656)" fill="#003e93"/>
              <path id="Path_222" data-name="Path 222" d="M144.067,40.347l2.113-.274a4.58,4.58,0,0,0,1.395,2.732c.486.446.9.52,1.158.24l.017-.019c.25-.271.171-.617-.524-1.637-1.1-1.6-1.809-2.976-.572-4.318l.017-.018c1.117-1.211,2.884-1.2,4.449.24a5.586,5.586,0,0,1,1.887,3.339l-2.081.444a4.451,4.451,0,0,0-1.235-2.325c-.438-.4-.823-.416-1.039-.183l-.017.019c-.276.3-.172.635.542,1.672,1.2,1.71,1.685,3.053.562,4.274l-.017.019c-1.229,1.333-3.013,1.154-4.6-.307A6.194,6.194,0,0,1,144.067,40.347Z" transform="translate(-91.607 -25.8)" fill="#003e93"/>
            </g>
            <g id="Group_30" data-name="Group 30" transform="translate(6.171 45.465)">
              <path id="Path_223" data-name="Path 223" d="M73.6,72.7h.01a1.794,1.794,0,0,1,1.808,1.849,1.709,1.709,0,0,1-.734,1.478l-.561-.731a.932.932,0,0,0,.412-.761.863.863,0,0,0-.92-.837h-.01a.863.863,0,0,0-.936.829.952.952,0,0,0,.421.79l-.522.726A1.838,1.838,0,0,1,73.6,72.7Z" transform="translate(-71.787 -72.7)" fill="#003e93"/>
              <path id="Path_224" data-name="Path 224" d="M75.409,76.907l.06.971-3.486.214-.059-.97Z" transform="translate(-71.804 -73.233)" fill="#003e93"/>
              <path id="Path_225" data-name="Path 225" d="M74.784,79.551l-.128-1.039.841-.1.376,3.039-.841.1L74.9,80.512l-2.623.324-.119-.961Z" transform="translate(-71.834 -73.423)" fill="#003e93"/>
              <path id="Path_226" data-name="Path 226" d="M76.139,82.942l.188.913-3.144,2.166L72.973,85l.56-.375L73.26,83.31l-.661-.118-.205-1ZM74.214,84.2l.893-.582-1.051-.185Z" transform="translate(-71.864 -73.903)" fill="#003e93"/>
              <path id="Path_227" data-name="Path 227" d="M76.8,85.954l.4,1.285a1.737,1.737,0,0,1-1.061,2.394l-.009,0a1.77,1.77,0,0,1-2.269-1.377l-.395-1.266Zm-2.108,2.084a.856.856,0,0,0,1.129.657l.01,0a.859.859,0,0,0,.556-1.182l-.118-.376-1.695.528Z" transform="translate(-72 -74.38)" fill="#003e93"/>
              <path id="Path_228" data-name="Path 228" d="M78.1,89.941l1.077,2.594-.761.315L77.7,91.141l-.488.2.642,1.548-.7.293-.642-1.548L76,91.847l.719,1.733-.76.315-1.085-2.617Z" transform="translate(-72.178 -74.885)" fill="#003e93"/>
              <path id="Path_229" data-name="Path 229" d="M79.537,93.3l.442.861-2.352,1.208.773,1.5-.755.387-1.215-2.365Z" transform="translate(-72.376 -75.311)" fill="#003e93"/>
              <path id="Path_230" data-name="Path 230" d="M81.939,97.618l.524.819-2.941,1.882L79,99.5Z" transform="translate(-72.701 -75.858)" fill="#003e93"/>
              <path id="Path_231" data-name="Path 231" d="M82.857,99.071l.539.724-.623,2.254,1.481-1.1.571.768-2.8,2.084-.506-.68.647-2.339-1.537,1.142-.571-.768Z" transform="translate(-72.835 -76.042)" fill="#003e93"/>
              <path id="Path_232" data-name="Path 232" d="M83.126,104.337l.838-.027a1.8,1.8,0,0,0,.443,1.124c.173.193.333.238.444.138l.007-.007c.108-.1.091-.235-.142-.661-.369-.667-.6-1.235-.06-1.713l.008-.007a1.179,1.179,0,0,1,1.734.264,2.2,2.2,0,0,1,.611,1.38l-.832.1a1.752,1.752,0,0,0-.395-.959c-.156-.175-.307-.194-.4-.111l-.008.007c-.119.107-.091.242.149.676.405.715.544,1.26.057,1.7l-.007.006c-.532.476-1.223.338-1.788-.294A2.433,2.433,0,0,1,83.126,104.337Z" transform="translate(-73.224 -76.529)" fill="#003e93"/>
              <path id="Path_233" data-name="Path 233" d="M87.949,106.246l-.758-.723.585-.614,2.216,2.113-.585.614-.758-.723-1.824,1.913-.7-.667Z" transform="translate(-73.604 -76.782)" fill="#003e93"/>
              <path id="Path_234" data-name="Path 234" d="M90.541,107.56l.744.627-2.249,2.67-.744-.626Z" transform="translate(-73.879 -77.118)" fill="#003e93"/>
              <path id="Path_235" data-name="Path 235" d="M92.154,109.85l-.842-.624.5-.681,2.46,1.824-.5.681-.841-.624-1.574,2.123-.778-.576Z" transform="translate(-74.169 -77.243)" fill="#003e93"/>
              <path id="Path_236" data-name="Path 236" d="M93.81,112.454l1.023-1.672.838.513-1.012,1.655a.631.631,0,0,0,.162.97.616.616,0,0,0,.923-.277l1.025-1.677.838.513-1.009,1.65a1.46,1.46,0,0,1-2.242.53A1.443,1.443,0,0,1,93.81,112.454Z" transform="translate(-74.54 -77.526)" fill="#003e93"/>
              <path id="Path_237" data-name="Path 237" d="M98.906,114.07l-.939-.465.376-.761,2.745,1.359-.376.76-.939-.465-1.173,2.37-.867-.43Z" transform="translate(-75.075 -77.788)" fill="#003e93"/>
              <path id="Path_238" data-name="Path 238" d="M101.683,114.523l2.613,1.03-.3.765-1.721-.679-.194.493,1.559.614-.279.71-1.559-.615-.2.515,1.745.687-.3.766-2.636-1.038Z" transform="translate(-75.414 -78.001)" fill="#003e93"/>
              <path id="Path_239" data-name="Path 239" d="M106.054,118.026l0-.01a1.882,1.882,0,0,1,3.651.9l0,.01a1.882,1.882,0,0,1-3.651-.9Zm2.69.673,0-.01a.908.908,0,0,0-.643-1.133.89.89,0,0,0-1.083.691l0,.01a.907.907,0,0,0,.637,1.132A.891.891,0,0,0,108.745,118.7Z" transform="translate(-76.123 -78.27)" fill="#003e93"/>
              <path id="Path_240" data-name="Path 240" d="M111.041,117.367l2.762.421-.128.838-1.8-.275-.09.587,1.633.249-.121.794-1.632-.248-.188,1.232-.957-.145Z" transform="translate(-76.695 -78.361)" fill="#003e93"/>
              <path id="Path_241" data-name="Path 241" d="M129.624,116.718l.98-.294,1.186,1.056.41-1.534.979-.294,1,3.344-.921.277-.577-1.92-.462,1.566-.019.006-1.241-1.044.575,1.911-.908.273Z" transform="translate(-79.117 -78.144)" fill="#003e93"/>
              <path id="Path_242" data-name="Path 242" d="M134.174,115.3l2.6-1.065.313.761-1.712.7.2.489,1.551-.636.289.706-1.551.636.21.512,1.735-.711.312.761-2.621,1.074Z" transform="translate(-79.694 -77.964)" fill="#003e93"/>
              <path id="Path_243" data-name="Path 243" d="M137.528,113.932l1.195-.622a1.738,1.738,0,0,1,2.544.621l0,.009a1.77,1.77,0,0,1-.954,2.476l-1.176.613Zm2.423,1.707a.856.856,0,0,0,.446-1.228l0-.009a.858.858,0,0,0-1.261-.339l-.35.182.82,1.575Z" transform="translate(-80.119 -77.81)" fill="#003e93"/>
              <path id="Path_244" data-name="Path 244" d="M141.271,111.969l.83-.507,1.822,2.978-.83.508Z" transform="translate(-80.593 -77.613)" fill="#003e93"/>
              <path id="Path_245" data-name="Path 245" d="M143.74,112.463l-.006-.008a1.794,1.794,0,0,1,.454-2.546,1.712,1.712,0,0,1,1.629-.261l-.269.881a.934.934,0,0,0-.858.107.864.864,0,0,0-.148,1.235l.006.008a.863.863,0,0,0,1.218.28.953.953,0,0,0,.4-.8l.893,0a1.838,1.838,0,0,1-3.319,1.1Z" transform="translate(-80.862 -77.37)" fill="#003e93"/>
              <path id="Path_246" data-name="Path 246" d="M146.985,107.863l.707-.608,3.421,1.7-.787.677-.6-.307-1.021.879.217.635-.771.664Zm2.039,1.069-.943-.5.349,1.009Z" transform="translate(-81.318 -77.079)" fill="#003e93"/>
              <path id="Path_247" data-name="Path 247" d="M149.235,105.89l.675-.693,1.895,1.844,1.179-1.212.608.591-1.854,1.905Z" transform="translate(-81.603 -76.819)" fill="#003e93"/>
              <path id="Path_248" data-name="Path 248" d="M154.8,104.176l-.181-.82a1.8,1.8,0,0,0,1.024-.64c.158-.205.173-.371.054-.463l-.008-.006c-.114-.088-.248-.046-.624.262-.589.485-1.1.811-1.673.372l-.008-.006a1.178,1.178,0,0,1-.059-1.753,2.2,2.2,0,0,1,1.245-.854l.245.8a1.755,1.755,0,0,0-.871.563c-.143.186-.134.337-.036.414l.008.006c.127.1.255.045.637-.271.63-.529,1.14-.765,1.657-.366l.008.006c.565.436.556,1.141.038,1.812A2.44,2.44,0,0,1,154.8,104.176Z" transform="translate(-82.076 -76.194)" fill="#003e93"/>
              <path id="Path_249" data-name="Path 249" d="M156.206,100.314l-.009-.005a1.794,1.794,0,0,1-.534-2.53,1.712,1.712,0,0,1,1.414-.853l.08.917a.935.935,0,0,0-.756.422.863.863,0,0,0,.327,1.2l.009.006a.864.864,0,0,0,1.235-.2.956.956,0,0,0,.069-.892l.83-.333a1.838,1.838,0,0,1-2.664,2.267Z" transform="translate(-82.378 -75.77)" fill="#003e93"/>
              <path id="Path_250" data-name="Path 250" d="M156.855,96.032l.47-.851,3.057,1.686-.47.852Z" transform="translate(-82.568 -75.549)" fill="#003e93"/>
              <path id="Path_251" data-name="Path 251" d="M157.7,94.288l1.2-2.539.743.351-.79,1.673.478.226.716-1.515.69.326-.716,1.515.5.237.8-1.695.744.352-1.211,2.561Z" transform="translate(-82.675 -75.114)" fill="#003e93"/>
              <path id="Path_252" data-name="Path 252" d="M159.239,90.923l.309-.848,2.226-.718-1.734-.632.328-.9,3.28,1.195-.29.8-2.31.746,1.8.655-.328.9Z" transform="translate(-82.871 -74.617)" fill="#003e93"/>
              <path id="Path_253" data-name="Path 253" d="M162.392,87.457l-.01,0a1.794,1.794,0,0,1-1.3-2.236,1.707,1.707,0,0,1,1.077-1.251l.363.846a.934.934,0,0,0-.588.636.864.864,0,0,0,.685,1.038l.01,0a.863.863,0,0,0,1.112-.572.953.953,0,0,0-.213-.87l.685-.575a1.838,1.838,0,0,1-1.823,2.985Z" transform="translate(-83.096 -74.128)" fill="#003e93"/>
              <path id="Path_254" data-name="Path 254" d="M161.649,83.052l.46-2.77.812.134-.3,1.826.521.086.274-1.653.754.125-.275,1.653.546.091.307-1.85.812.135-.465,2.794Z" transform="translate(-83.176 -73.661)" fill="#003e93"/>
              <path id="Path_255" data-name="Path 255" d="M165.168,79.975l-.6-.589a1.8,1.8,0,0,0,.509-1.1c.022-.258-.057-.405-.206-.417h-.01c-.144-.011-.233.1-.381.56-.23.727-.485,1.282-1.2,1.223h-.01c-.646-.052-1.072-.6-1-1.437a2.194,2.194,0,0,1,.579-1.395l.642.538a1.751,1.751,0,0,0-.423.947c-.019.233.071.355.2.366h.01c.159.013.238-.1.387-.574.239-.787.539-1.263,1.19-1.209h.01c.711.058,1.088.654,1.019,1.5A2.437,2.437,0,0,1,165.168,79.975Z" transform="translate(-83.254 -73.223)" fill="#003e93"/>
            </g>
          </g>
          <g id="Group_32" data-name="Group 32" transform="translate(0 34.384)">
            <path id="Path_256" data-name="Path 256" d="M100.522,137.076c2.835,2.24,7.757,2.317,7.757,2.317a39.587,39.587,0,0,1-3.336-4.663c-2-3.557-8.291-5.839-8.291-5.839S97.548,134.726,100.522,137.076Z" transform="translate(-48.453 -68.741)" fill="#003e93"/>
            <path id="Path_257" data-name="Path 257" d="M97.052,137.7a39.281,39.281,0,0,1-2.335-5.225c-1.24-3.869-6.989-7.407-6.989-7.407s-.319,5.848,2.136,8.754C92.2,136.588,97.052,137.7,97.052,137.7Z" transform="translate(-47.32 -68.256)" fill="#003e93"/>
            <path id="Path_258" data-name="Path 258" d="M84.218,140.614c-1.949,1.017-5.228,2.431-5.228,2.431s4.373,2.381,7.894,2.2c3.7-.19,7.755-4.2,7.755-4.2S87.656,138.821,84.218,140.614Z" transform="translate(-46.214 -70.138)" fill="#003e93"/>
            <path id="Path_259" data-name="Path 259" d="M86.038,134.436a37.883,37.883,0,0,1-1.324-5.428c-.5-3.93-5.461-8.379-5.461-8.379s-1.375,5.532.488,8.765C81.518,132.475,86.038,134.436,86.038,134.436Z" transform="translate(-46.185 -67.694)" fill="#003e93"/>
            <path id="Path_260" data-name="Path 260" d="M72.993,135.049c-2.084.61-5.536,1.354-5.536,1.354s3.827,3.089,7.29,3.568c3.634.5,8.32-2.575,8.32-2.575S76.668,133.973,72.993,135.049Z" transform="translate(-44.752 -69.495)" fill="#003e93"/>
            <path id="Path_261" data-name="Path 261" d="M75.929,129.353a35.082,35.082,0,0,1-.242-5.248c.251-3.714-3.582-8.74-3.582-8.74s-2.311,4.838-1.157,8.165C72.047,126.7,75.929,129.353,75.929,129.353Z" transform="translate(-45.154 -67.026)" fill="#003e93"/>
            <path id="Path_262" data-name="Path 262" d="M72.7,131.685s-5.376-4.351-9.025-4.048c-2.069.172-5.446.21-5.446.21s3.023,3.561,6.186,4.652C67.735,133.644,72.7,131.685,72.7,131.685Z" transform="translate(-43.583 -68.58)" fill="#003e93"/>
            <path id="Path_263" data-name="Path 263" d="M66.983,122.451a32.176,32.176,0,0,1,.737-4.877c.918-3.373-1.755-8.716-1.755-8.716s-3.057,4.025-2.587,7.3C63.827,119.285,66.983,122.451,66.983,122.451Z" transform="translate(-44.229 -66.202)" fill="#003e93"/>
            <path id="Path_264" data-name="Path 264" d="M63.7,123.988s-4.245-5.008-7.725-5.409c-1.973-.227-5.15-.821-5.15-.821s2.183,3.842,4.951,5.436C58.679,124.866,63.7,123.988,63.7,123.988Z" transform="translate(-42.644 -67.33)" fill="#003e93"/>
            <path id="Path_265" data-name="Path 265" d="M60.457,114.681a31.035,31.035,0,0,1,1.392-4.613c1.366-3.134-.538-8.666-.538-8.666s-3.561,3.469-3.545,6.7C57.781,111.185,60.457,114.681,60.457,114.681Z" transform="translate(-43.524 -65.257)" fill="#003e93"/>
            <path id="Path_266" data-name="Path 266" d="M57.15,115.661s-3.5-5.426-6.872-6.292c-1.912-.492-4.96-1.5-4.96-1.5s1.625,4.015,4.134,5.936C52.085,115.819,57.15,115.661,57.15,115.661Z" transform="translate(-41.946 -66.076)" fill="#003e93"/>
            <path id="Path_267" data-name="Path 267" d="M53.564,99.534c-.72,2.829.948,6.674.948,6.674a29.081,29.081,0,0,1,2.4-3.9c2.024-2.547,1.563-8.076,1.563-8.076S54.32,96.565,53.564,99.534Z" transform="translate(-42.969 -64.348)" fill="#003e93"/>
            <path id="Path_268" data-name="Path 268" d="M51.444,106.193s-1.976-5.811-4.924-7.412c-1.671-.907-4.28-2.563-4.28-2.563s.562,4.07,2.449,6.432C46.671,105.128,51.444,106.193,51.444,106.193Z" transform="translate(-41.556 -64.6)" fill="#003e93"/>
            <path id="Path_269" data-name="Path 269" d="M54.567,93.662c2.112-2.166,2.157-7.279,2.157-7.279s-4.089,1.784-5.052,4.445c-.917,2.535.313,6.206.313,6.206A26.729,26.729,0,0,1,54.567,93.662Z" transform="translate(-42.709 -63.353)" fill="#003e93"/>
            <path id="Path_270" data-name="Path 270" d="M49.208,96.7s-1.349-5.5-3.969-7.223c-1.485-.975-3.782-2.717-3.782-2.717s.176,3.783,1.739,6.111C44.835,95.311,49.208,96.7,49.208,96.7Z" transform="translate(-41.457 -63.401)" fill="#003e93"/>
            <path id="Path_271" data-name="Path 271" d="M56.975,78.494s-4.424,1.1-5.839,3.583c-1.348,2.363-.716,6.2-.716,6.2a27.238,27.238,0,0,1,3.166-2.923C56.08,83.553,56.975,78.494,56.975,78.494Z" transform="translate(-42.574 -62.354)" fill="#003e93"/>
            <path id="Path_272" data-name="Path 272" d="M47.843,87.365s-.446-5.671-2.8-7.8c-1.336-1.208-3.366-3.306-3.366-3.306s-.452,3.777.738,6.337C43.659,85.282,47.843,87.365,47.843,87.365Z" transform="translate(-41.474 -62.07)" fill="#003e93"/>
            <path id="Path_273" data-name="Path 273" d="M53.4,77.8c2.653-1.462,4.124-6.264,4.124-6.264s-4.463.561-6.14,2.8c-1.6,2.137-1.43,5.93-1.43,5.93A26.919,26.919,0,0,1,53.4,77.8Z" transform="translate(-42.534 -61.472)" fill="#003e93"/>
            <path id="Path_274" data-name="Path 274" d="M47.446,78.415s1.309-5.355-.273-8.021c-.9-1.512-2.178-4.05-2.178-4.05s-1.581,3.343-1.237,6.056C44.119,75.248,47.446,78.415,47.446,78.415Z" transform="translate(-41.742 -60.814)" fill="#003e93"/>
            <path id="Path_275" data-name="Path 275" d="M54.407,64.523c-.078-1.724-.005-4.512-.005-4.512s-3.031,2.124-4.027,4.619c-1.046,2.619.416,6.916.416,6.916S54.544,67.564,54.407,64.523Z" transform="translate(-42.539 -60.011)" fill="#003e93"/>
            <path id="Path_276" data-name="Path 276" d="M140.014,128.89s-6.294,2.283-8.291,5.839a39.587,39.587,0,0,1-3.336,4.663s4.923-.077,7.757-2.317C139.118,134.726,140.014,128.89,140.014,128.89Z" transform="translate(-52.474 -68.741)" fill="#003e93"/>
            <path id="Path_277" data-name="Path 277" d="M124.688,142.9h-.009a88.953,88.953,0,0,0-8.991,4.091A88.953,88.953,0,0,0,106.7,142.9h-.009c-.189-.031-7.19-1.156-10.262,1.108-1.764,1.3-4.775,3.2-4.775,3.2s4.622,1.731,8.045,1.03c2.776-.568,5.433-3.434,6.5-4.711a68.91,68.91,0,0,1,8.373,4.074c-4.337,2.4-8.59,5.428-9.357,8.378-.129.5.992,2.319,1.21,1.655,1.192-3.623,5.188-6.873,9.263-9.369,4.075,2.5,8.071,5.746,9.263,9.369.218.665,1.34-1.159,1.21-1.655-.767-2.95-5.02-5.978-9.357-8.378a68.912,68.912,0,0,1,8.373-4.074c1.069,1.278,3.726,4.144,6.5,4.711,3.423.7,8.045-1.03,8.045-1.03s-3.011-1.894-4.776-3.2C131.878,141.742,124.878,142.868,124.688,142.9Z" transform="translate(-47.819 -70.477)" fill="#003e93"/>
            <path id="Path_278" data-name="Path 278" d="M147.135,133.82c2.455-2.905,2.135-8.754,2.135-8.754s-5.749,3.538-6.988,7.407a39.278,39.278,0,0,1-2.335,5.225S144.8,136.588,147.135,133.82Z" transform="translate(-53.94 -68.256)" fill="#003e93"/>
            <path id="Path_279" data-name="Path 279" d="M141.443,141.045s4.06,4.009,7.755,4.2c3.521.182,7.894-2.2,7.894-2.2s-3.279-1.414-5.228-2.431C148.426,138.821,141.443,141.045,141.443,141.045Z" transform="translate(-54.129 -70.138)" fill="#003e93"/>
            <path id="Path_280" data-name="Path 280" d="M157.556,129.394c1.863-3.233.488-8.765.488-8.765s-4.957,4.449-5.46,8.379a37.881,37.881,0,0,1-1.324,5.428S155.781,132.475,157.556,129.394Z" transform="translate(-55.373 -67.694)" fill="#003e93"/>
            <path id="Path_281" data-name="Path 281" d="M153.022,137.4s4.685,3.079,8.32,2.575c3.463-.479,7.289-3.568,7.289-3.568s-3.451-.743-5.535-1.354C159.42,133.973,153.022,137.4,153.022,137.4Z" transform="translate(-55.597 -69.495)" fill="#003e93"/>
            <path id="Path_282" data-name="Path 282" d="M166.636,123.529c1.154-3.327-1.157-8.165-1.157-8.165s-3.833,5.026-3.582,8.74a35.036,35.036,0,0,1-.243,5.248S165.537,126.7,166.636,123.529Z" transform="translate(-56.691 -67.026)" fill="#003e93"/>
            <path id="Path_283" data-name="Path 283" d="M163.553,131.685s4.965,1.959,8.285.815c3.163-1.091,6.186-4.652,6.186-4.652s-3.378-.038-5.446-.21C168.929,127.335,163.553,131.685,163.553,131.685Z" transform="translate(-56.931 -68.58)" fill="#003e93"/>
            <path id="Path_284" data-name="Path 284" d="M170.706,122.451s3.156-3.166,3.6-6.29c.471-3.278-2.587-7.3-2.587-7.3s-2.673,5.343-1.755,8.716A32.3,32.3,0,0,1,170.706,122.451Z" transform="translate(-57.72 -66.202)" fill="#003e93"/>
            <path id="Path_285" data-name="Path 285" d="M172.787,123.988s5.02.879,7.924-.794c2.767-1.594,4.95-5.436,4.95-5.436s-3.176.594-5.149.821C177.032,118.98,172.787,123.988,172.787,123.988Z" transform="translate(-58.102 -67.33)" fill="#003e93"/>
            <path id="Path_286" data-name="Path 286" d="M177.232,114.681s2.677-3.5,2.691-6.577c.016-3.234-3.546-6.7-3.546-6.7s-1.9,5.532-.538,8.666A30.965,30.965,0,0,1,177.232,114.681Z" transform="translate(-58.426 -65.257)" fill="#003e93"/>
            <path id="Path_287" data-name="Path 287" d="M179.487,115.661s5.065.158,7.7-1.858c2.509-1.921,4.134-5.936,4.134-5.936s-3.048,1.011-4.96,1.5C182.984,110.235,179.487,115.661,179.487,115.661Z" transform="translate(-58.951 -66.076)" fill="#003e93"/>
            <path id="Path_288" data-name="Path 288" d="M183.1,106.208s1.669-3.845.948-6.674c-.756-2.969-4.914-5.3-4.914-5.3s-.461,5.529,1.563,8.076A29.078,29.078,0,0,1,183.1,106.208Z" transform="translate(-58.9 -64.348)" fill="#003e93"/>
            <path id="Path_289" data-name="Path 289" d="M185.574,106.193s4.773-1.065,6.754-3.544c1.888-2.361,2.45-6.432,2.45-6.432s-2.609,1.656-4.28,2.563C187.55,100.383,185.574,106.193,185.574,106.193Z" transform="translate(-59.722 -64.6)" fill="#003e93"/>
            <path id="Path_290" data-name="Path 290" d="M180.848,86.383s.045,5.113,2.157,7.279a26.734,26.734,0,0,1,2.581,3.373s1.23-3.671.313-6.206C184.937,88.167,180.848,86.383,180.848,86.383Z" transform="translate(-59.123 -63.353)" fill="#003e93"/>
            <path id="Path_291" data-name="Path 291" d="M194.033,92.868c1.563-2.328,1.739-6.111,1.739-6.111s-2.3,1.742-3.782,2.717c-2.62,1.721-3.969,7.223-3.969,7.223S192.394,95.311,194.033,92.868Z" transform="translate(-60.032 -63.401)" fill="#003e93"/>
            <path id="Path_292" data-name="Path 292" d="M186.245,82.077c-1.415-2.479-5.839-3.583-5.839-3.583s.9,5.059,3.388,6.861a27.24,27.24,0,0,1,3.166,2.923S187.592,84.44,186.245,82.077Z" transform="translate(-59.067 -62.354)" fill="#003e93"/>
            <path id="Path_293" data-name="Path 293" d="M195.035,82.6c1.19-2.56.738-6.337.738-6.337s-2.029,2.1-3.366,3.306c-2.358,2.13-2.8,7.8-2.8,7.8S193.787,85.282,195.035,82.6Z" transform="translate(-60.233 -62.07)" fill="#003e93"/>
            <path id="Path_294" data-name="Path 294" d="M183.851,77.8a26.917,26.917,0,0,1,3.445,2.47s.169-3.793-1.43-5.93c-1.677-2.242-6.14-2.8-6.14-2.8S181.2,76.343,183.851,77.8Z" transform="translate(-58.981 -61.472)" fill="#003e93"/>
            <path id="Path_295" data-name="Path 295" d="M193.98,72.4c.345-2.713-1.237-6.056-1.237-6.056s-1.281,2.539-2.178,4.05c-1.582,2.666-.273,8.021-.273,8.021S193.618,75.248,193.98,72.4Z" transform="translate(-60.256 -60.814)" fill="#003e93"/>
            <path id="Path_296" data-name="Path 296" d="M186.923,71.546s1.462-4.3.416-6.916c-1-2.495-4.027-4.619-4.027-4.619s.072,2.788-.005,4.512C183.168,67.564,186.923,71.546,186.923,71.546Z" transform="translate(-59.434 -60.011)" fill="#003e93"/>
          </g>
        </g>
      </g>
    </g>
  </g>
</svg>
