<svg xmlns="http://www.w3.org/2000/svg" width="38.586" height="58.462" viewBox="0 0 38.586 58.462">
  <g id="Group_180" data-name="Group 180" transform="translate(-58.268 -36.771)">
    <g id="Group_180-2" data-name="Group 180" transform="translate(72.192 43.377)">
      <path id="Path_329" data-name="Path 329" d="M99.784,85.291V83.869a.313.313,0,0,0-.313-.315h-2a.315.315,0,0,0-.315.315v1.423a.315.315,0,0,0,.315.313h.183l-.1,1.145.92,1.376.906-1.413L99.288,85.6h.183A.313.313,0,0,0,99.784,85.291Z" transform="translate(-93.101 -68.532)" fill="#c0031b"/>
      <path id="Path_330" data-name="Path 330" d="M89.209,60.488A6.179,6.179,0,0,0,90.972,63.9a5.044,5.044,0,0,0,1.4,1.014,3.011,3.011,0,0,0,2.774,0,5.044,5.044,0,0,0,1.4-1.014,6.185,6.185,0,0,0,1.764-3.409s.821-.226.821-2.136c0-.376-.3-.5-.433-.627,0-.252.129-2.011.129-2.514,0-1-.315-1.961-1.473-1.961,0-1.5-1.71-2.252-3.592-2.186C91.874,51,88.63,52.473,88.691,55.21c0,.5.129,2.262.129,2.514-.129.126-.433.251-.433.627C88.387,60.262,89.209,60.488,89.209,60.488Z" transform="translate(-88.387 -51.059)" fill="#c0031b"/>
      <path id="Path_331" data-name="Path 331" d="M111.5,93.98a.607.607,0,1,1-.609.609A.607.607,0,0,1,111.5,93.98Z" transform="translate(-100.487 -74.138)" fill="#c0031b"/>
    </g>
    <g id="Group_181" data-name="Group 181" transform="translate(58.268 36.771)">
      <path id="Path_332" data-name="Path 332" d="M85.441,135.76c-.5.652-.977,1.278-1.458,1.887,6.757.8,10.812,2.744,10.812,4.193,0,1.861-6.714,4.562-17.235,4.562s-17.235-2.7-17.235-4.562c0-1.449,4.056-3.4,10.8-4.193-.472-.609-.96-1.235-1.449-1.887-6.388.9-11.413,2.95-11.413,6.079,0,4.348,9.707,6.62,19.293,6.62s19.293-2.272,19.293-6.62C96.854,138.71,91.829,136.661,85.441,135.76Z" transform="translate(-58.268 -89.997)" fill="#c0031b"/>
      <path id="Path_333" data-name="Path 333" d="M77.556,36.771a19.277,19.277,0,0,0-19.283,19.3c0,9.813,16.31,29.307,18.924,32.392a.477.477,0,0,0,.726,0c2.622-3.085,18.931-22.579,18.931-32.392A19.281,19.281,0,0,0,77.556,36.771ZM88.714,63.855a4.406,4.406,0,0,0-.435-1.72c-.407-.583-2.79-1.728-4.741-2.562l.068,2.9a1.421,1.421,0,1,1-.81,0l-.187-3.292c-.746-.3-1.341-.527-1.588-.6l-3.444,5.1L74,58.6c-.256.072-.9.315-1.708.65v3.3a.5.5,0,0,1,.276.2.607.607,0,0,0,.1.108,2.63,2.63,0,0,1,.595.706.419.419,0,0,1,.02.431c.068.116.132.243.188.363a9.815,9.815,0,0,1,.846,1.9.979.979,0,0,1-.312.826,1.057,1.057,0,0,1-.619.239.1.1,0,0,1-.1.092H73.1a.442.442,0,0,1-.447-.439v-.012a.275.275,0,0,1,.008-.08.316.316,0,0,1,.024-.08.447.447,0,0,1,.415-.275h.187a.1.1,0,0,1,.092.072.363.363,0,0,0,.155-.06.308.308,0,0,0,.06-.239,7.828,7.828,0,0,0-.933-1.943,1.573,1.573,0,0,0-.087-.135.443.443,0,0,1-.292-.164l-.008-.008a.436.436,0,0,0-.682,0l-.008.008a.417.417,0,0,1-.291.164c-.028.044-.056.088-.084.135a7.549,7.549,0,0,0-.929,1.943.225.225,0,0,0,.22.3.1.1,0,0,1,.092-.072h.187a.443.443,0,1,1,0,.886h-.187a.1.1,0,0,1-.1-.092,1.071,1.071,0,0,1-.627-.239.968.968,0,0,1-.311-.826,10.046,10.046,0,0,1,.846-1.9c.056-.12.12-.247.187-.363a.422.422,0,0,1,.016-.427,2.834,2.834,0,0,1,.6-.71.626.626,0,0,0,.1-.108.511.511,0,0,1,.275-.2v-3c-1.927.838-4.314,1.992-4.725,2.582a4.411,4.411,0,0,0-.435,1.724,13.6,13.6,0,1,1,22.3,0Z" transform="translate(-58.271 -36.771)" fill="#c0031b"/>
    </g>
  </g>
</svg>
