<svg xmlns="http://www.w3.org/2000/svg" xmlns:xlink="http://www.w3.org/1999/xlink" width="63.139" height="63.335" viewBox="0 0 63.139 63.335">
  <defs>
    <clipPath id="clip-path">
      <rect id="Rectangle_33" data-name="Rectangle 33" width="63.139" height="63.335" fill="none"/>
    </clipPath>
  </defs>
  <g id="Group_184" data-name="Group 184" transform="translate(-1137.321 -1130)">
    <g id="Group_183" data-name="Group 183" transform="translate(1137.321 1130)">
      <g id="Group_182" data-name="Group 182" transform="translate(0 0)" clip-path="url(#clip-path)">
        <path id="Path_334" data-name="Path 334" d="M1198.768,1152.933a2.158,2.158,0,0,0-2.507,1.536,10.683,10.683,0,0,1-.849,2.109l-14.852-14.852a10.2,10.2,0,0,1,2.1-.825,2.1,2.1,0,0,0-.971-4.092c-.169.041-16.638,4.34-13.932,27.849-1.081-.071-2.159-.1-3.217-.1-19.2,0-26.55,12.068-26.851,12.576-1.437,2.422,2.2,4.459,3.608,2.158a15.068,15.068,0,0,1,1.847-2.314l17.039,17.045a15.149,15.149,0,0,1-2.295,1.835,2.1,2.1,0,0,0,2.137,3.622c.573-.342,13.928-8.54,12.474-30.078,17.22,2,26.112-6.746,27.856-13.948a2.1,2.1,0,0,0-1.582-2.516Zm-30.786,25.277-9.038-9.04a40.682,40.682,0,0,1,9.3-.258,39.97,39.97,0,0,1-.258,9.3Zm-14.059-7.924,12.884,12.959a24.12,24.12,0,0,1-3.959,7.67l-16.594-16.652c2.868-2.328,6.587-3.491,7.669-3.977Zm17.852-13.772,8.82,8.853a37.893,37.893,0,0,1-8.552-.248,38.132,38.132,0,0,1-.268-8.6Zm13.9,7.841-12.942-12.836a17.062,17.062,0,0,1,4.1-7.065l15.926,15.693-.17.21a16.552,16.552,0,0,1-6.915,4Zm0,0" transform="translate(-1137.354 -1136.65)" fill="#c0031b"/>
      </g>
    </g>
  </g>
</svg>
