<svg xmlns="http://www.w3.org/2000/svg" width="65.93" height="49.308" viewBox="0 0 65.93 49.308">
  <path id="Path_328" data-name="Path 328" d="M187.033,293.265c0-2.252.079-7.965.859-11.137.687-2.8,1.832-4.825,4.125-6.045.876-.5,2.83-1.517,4.828-2.638a8.265,8.265,0,0,0,.189,3.784,1.239,1.239,0,0,1,1.191-.292c-.361-1.825-.716-3.145.693-4.657a.4.4,0,0,0,.032-.056,12.807,12.807,0,0,0,3.6-2.732,14.03,14.03,0,0,1-2.795-5l-.635-.372a17.408,17.408,0,0,1-1.17-7.431l.451-.346c-.04-.808-.04-1.613,0-2.421.148-3.228.868-5.233,3.654-7.145a11.548,11.548,0,0,1,12.935,0c2.787,1.913,3.507,3.918,3.654,7.145.037.809.037,1.614,0,2.421l.451.346a17.408,17.408,0,0,1-1.17,7.431l-.635.372a14.03,14.03,0,0,1-2.795,5,9.56,9.56,0,0,0,2.686,2.167.576.576,0,0,0,.083.114c2.413,2.565,3.045,5.671-.356,7.55-2.425,1.34-3.836,3.936-1.235,5.857a2.831,2.831,0,0,0-.064.6,2.8,2.8,0,1,0,.761-1.921,6.561,6.561,0,0,0,.816.563,1.831,1.831,0,1,1-.606,1.362v-.053c.163.07.324.142.488.207a1.354,1.354,0,1,0,.365-1.092c-2.779-1.114-2.521-3.1.031-4.514,3.2-1.769,3.576-4.57,2.207-7.188,2.174,1.237,4.405,2.393,5.359,2.939,2.294,1.22,3.438,3.248,4.125,6.045.78,3.173.858,8.886.858,11.137ZM197.288,281.6a20.509,20.509,0,0,1,2.779-.711,7.72,7.72,0,0,1,3.577,1.449l.2.158a1.736,1.736,0,0,1,1.191-1.443c-2.041-1.628-3.254-1.3-5.162-2.353a10.465,10.465,0,0,1-1.553-1.248.747.747,0,0,0-1.151.3,10.468,10.468,0,0,1-.764,1.832c-1.092,1.723-2.346,2.027-3.395,4.523a1.851,1.851,0,0,1,1.744.684,7.64,7.64,0,0,1,2.531-3.193Zm-3.189,7.373a8.306,8.306,0,0,1,.144-4,1.067,1.067,0,0,0-.991-.378,10.772,10.772,0,0,0,.081,6.033c.148.582.68,1.292,1.364,1.117,1.168-.3.769-2.437-.232-2.743a.854.854,0,0,0-.366-.03Zm12.213-3.148c-1.039.4-.635,2.412.334,2.71a.864.864,0,0,0,.473.009c.682-.174.809-1.051.66-1.634a10.793,10.793,0,0,0-2.825-5.336.963.963,0,0,0-.677.817,8.278,8.278,0,0,1,2.036,3.434Zm-4.779-29.254a20.523,20.523,0,0,0,.244,2.542c-.357-.115-1.225-.241-1.362-.621a9.3,9.3,0,0,1-.269-1.012c-.036-.167-.06-.316-.255-.166l-.23.177a.179.179,0,0,0-.062.153,15.466,15.466,0,0,0,.842,5.16.513.513,0,0,0,.231.283l.321.188a.513.513,0,0,1,.243.307l.128.437a12.3,12.3,0,0,0,2.437,4.359,6.486,6.486,0,0,0,2.61,1.68,7.745,7.745,0,0,0,4.222,0,6.487,6.487,0,0,0,2.609-1.68,12.292,12.292,0,0,0,2.437-4.359l.128-.437a.513.513,0,0,1,.243-.307l.321-.188a.513.513,0,0,0,.231-.283,15.466,15.466,0,0,0,.842-5.16.179.179,0,0,0-.062-.153l-.23-.177c-.2-.15-.219,0-.255.166a9.231,9.231,0,0,1-.269,1.012c-.137.38-1.005.506-1.362.621a20.6,20.6,0,0,0,.245-2.542c.114-2.673-.788-2.473-2.4-1.732-4.383,2.016-4.751,2.048-9.142.018-1.636-.756-2.554-.981-2.438,1.714Zm2.288,14.032a10.253,10.253,0,0,1-2.254,1.944c3.376,3.978,10.533,3.946,13.911,0a10.248,10.248,0,0,1-2.254-1.944,8.376,8.376,0,0,1-9.4,0Zm39.53-21.8a2.664,2.664,0,0,0-.863-2.315,9.6,9.6,0,0,0-12.979,0,2.654,2.654,0,0,0-.863,2.314l.381,2.449a9.053,9.053,0,0,0-2.474,3.588,11.234,11.234,0,0,0-.659,3.308c-.356,5.5.446,10-2.549,15.227l.4.216a32.54,32.54,0,0,1,5-2.618l.526-.221a6.8,6.8,0,0,0,1.492,1.358c.178.09.587-1.033.695-1.729,0,0,.035.03.04.034a14.478,14.478,0,0,0,2.377,1.657,3.89,3.89,0,0,0,4.248,0,14.464,14.464,0,0,0,2.377-1.657c.006,0,.04-.036.04-.034.108.7.517,1.818.7,1.729a6.784,6.784,0,0,0,1.492-1.358l.526.221a32.086,32.086,0,0,1,5.894,3.218c-3.791-6.01-2.669-10.256-3.044-16.042a11.232,11.232,0,0,0-.658-3.308,8.3,8.3,0,0,0-2.17-3.428c-.089-.079-.187-.162-.292-.245l.368-2.363Zm-6.541-.783h1.481v1.623h-1.481v1.481h-1.623v-1.481h-1.481v-1.623h1.481v-1.481h1.623v1.481Zm4.785-.45a8.209,8.209,0,0,0-11.193,0,1.258,1.258,0,0,0-.359,1.106l.606,3.857a30.486,30.486,0,0,1,10.7,0l.606-3.857a1.257,1.257,0,0,0-.358-1.106ZM235.574,259.1c-.973.382-3.173.958-4.328,1.3a1.891,1.891,0,0,0-1.1.592,2.7,2.7,0,0,0-.537,2.214,10.453,10.453,0,0,0,.979,3.843,9.406,9.406,0,0,0,4.065,3.8,2.482,2.482,0,0,0,2.7,0,9.4,9.4,0,0,0,4.065-3.8,8.806,8.806,0,0,0,.779-2.374c.02-.108.061-.119.164-.124.551,0,1.136-1.335,1.309-2.982s-.137-2.982-.688-2.982c-.233,0-.473.239-.684.639-.2.378-.392.652-.666.319a6.71,6.71,0,0,1-.719-1.914c-.4-1.161-.893-1-1.524-.548a17.369,17.369,0,0,1-3.813,2.019Zm-10.644,15.124q.431.238.858.482c2.821,1.51,4.147,4.02,4.89,7.044a31.25,31.25,0,0,1,.7,5.135q.013.2.026.389h19.331c1.2,0,2.489-1.023,2.185-2.185-.285-1.089-1.185-5.342-1.992-7.644-.63-1.8-6.22-4.561-7.874-5.263L236,279.993l-7.052-7.808A40.647,40.647,0,0,0,224.929,274.226Z" transform="translate(-187.033 -243.957)" fill="#c0031b" fill-rule="evenodd"/>
</svg>
