<svg xmlns="http://www.w3.org/2000/svg" width="53.871" height="51.633" viewBox="0 0 53.871 51.633">
  <g id="Group_179" data-name="Group 179" transform="translate(-853.454 -467.401)">
    <g id="Group_177" data-name="Group 177" transform="translate(853.454 467.401)">
      <path id="Path_325" data-name="Path 325" d="M1631.016,467.4v8.48a17.462,17.462,0,0,1,0,34.659v8.494a25.782,25.782,0,0,0,3.936-.321l.4-3.316a22.628,22.628,0,0,0,2.988-.808l2.023,2.693a25.815,25.815,0,0,0,6.811-3.941l-1.318-3.092a22.61,22.61,0,0,0,2.2-2.181l3.065,1.306a25.817,25.817,0,0,0,3.934-6.821l-2.668-2a22.615,22.615,0,0,0,.818-2.992l3.29-.4a23.813,23.813,0,0,0,.014-7.875l-3.316-.4a22.62,22.62,0,0,0-.808-2.988l2.693-2.023a25.812,25.812,0,0,0-3.941-6.811l-3.092,1.318a22.6,22.6,0,0,0-2.182-2.2l1.306-3.066a25.819,25.819,0,0,0-6.821-3.934l-2,2.667a22.629,22.629,0,0,0-2.992-.818l-.4-3.29A25.816,25.816,0,0,0,1631.016,467.4Z" transform="translate(-1602.961 -467.402)" fill="#c0031b"/>
      <path id="Path_326" data-name="Path 326" d="M878.66,467.4a25.824,25.824,0,0,0-25.206,25.809h0v.006h0a25.824,25.824,0,0,0,25.206,25.809v-8.417a17.406,17.406,0,0,1,0-34.791Z" transform="translate(-853.454 -467.401)" fill="#c0031b"/>
    </g>
    <g id="Group_178" data-name="Group 178" transform="translate(868.301 482.157)">
      <path id="Path_327" data-name="Path 327" d="M1272.07,876.383h7.912v7.1h7.1V891.4h-7.1v7.1h-7.912v-7.1h-7.1v-7.912h7.1Z" transform="translate(-1264.966 -876.383)" fill="#c0031b"/>
    </g>
  </g>
</svg>
