<svg xmlns="http://www.w3.org/2000/svg" width="46.043" height="52.742" viewBox="0 0 46.043 52.742">
  <g id="Group_176" data-name="Group 176" transform="translate(-66.673 -40)">
    <path id="Path_320" data-name="Path 320" d="M179.931,141.572c3.374,0,6.363-2.4,8.208-6.106a19.165,19.165,0,0,0,1.882-7.09,11.676,11.676,0,0,0,.116-1.467l-.63-.117h-.065l-3.435-.437c1.885-1.089.888-3.468.423-4.266-.139-.236-.235-.375-.235-.375a.849.849,0,0,1-.079.057,40.675,40.675,0,0,1-9.761,5.334,40.054,40.054,0,0,1-6.486,1.628C170.535,135.982,174.787,141.572,179.931,141.572Z" transform="translate(-90.237 -71.454)" fill="none"/>
    <path id="Path_321" data-name="Path 321" d="M106.911,270.255a8.175,8.175,0,0,0-3.76-4.173,1.956,1.956,0,0,0-.854-1.008c.357-1.722,2.34-4.134,4.791-4.134v-1.608a6.345,6.345,0,0,0-4.584,2.144,6.754,6.754,0,0,0-1.827,3.544,1.965,1.965,0,0,0-.98,1.117,5.815,5.815,0,0,0-1.556,1.095,10.671,10.671,0,0,0-2.193,3.232,1.13,1.13,0,0,0-.034.859,12.936,12.936,0,0,0-.939,4.574,5.969,5.969,0,0,0,.48,3.1,2.254,2.254,0,0,0,1.645.978.969.969,0,0,0,.648.251H99.2a.975.975,0,0,0,.974-.975V279.2l0-.006a.976.976,0,0,0-.972-.917H97.747a.977.977,0,0,0-.437.1c-.39-.072-.457-.18-.49-.233a6.042,6.042,0,0,1-.237-2.246,11.23,11.23,0,0,1,.785-3.878,1.145,1.145,0,0,0,.661-.6c.948-2.071,2.3-3.409,3.449-3.409,1.123,0,2.414,1.24,3.368,3.235a1.139,1.139,0,0,0,.568.549,11.479,11.479,0,0,1,.87,4.1,6.022,6.022,0,0,1-.219,2.241c-.032.055-.089.153-.434.226a.964.964,0,0,0-.407-.091h-1.455a.976.976,0,0,0-.973.952v.022a.975.975,0,0,0,.974.975h1.455a.964.964,0,0,0,.676-.277c1.894-.375,1.992-1.79,1.992-4.048a13.156,13.156,0,0,0-.974-4.673A1.137,1.137,0,0,0,106.911,270.255Z" transform="translate(-24.747 -191.789)" fill="none"/>
    <path id="Path_322" data-name="Path 322" d="M197.619,272.668c-.187,0-.371-.007-.552-.007-1.752,0-3.186.227-3.6.9l1.352-2.811a8.677,8.677,0,0,1-12.9-.127l1.937,4.32c-.453-.742-2.2-1.121-4.261-1.3.8,1.471,2.77,2.663,5.325,3.243l3.516,5.713,3.515-5.713C195.051,276.184,197.3,274.579,197.619,272.668Z" transform="translate(-98.741 -201.664)" fill="none"/>
    <path id="Path_323" data-name="Path 323" d="M312.368,267.137a3.508,3.508,0,0,0-.71-.283,7.554,7.554,0,0,0-.646-2.175,6.343,6.343,0,0,0-3.685-3.468l-.279-.092-.092.279-.319.971-.092.279.278.091a5.274,5.274,0,0,1,3.182,4.054,3.515,3.515,0,1,0,2.361.344Zm-1.658,4.858a1.758,1.758,0,1,1,1.758-1.758A1.758,1.758,0,0,1,310.71,271.994Z" transform="translate(-209.752 -193.352)" fill="none"/>
    <path id="Path_324" data-name="Path 324" d="M107.575,74.358a15.1,15.1,0,0,0-5.485-3.119c2.607.293,4.894.742,4.894.742-5.2-2.859-5.068-13.126-5.068-13.126C102.74,40.853,92.062,40,90.032,40c-.212,0-.331.01-.331.01l-.008.031-.01-.03S89.564,40,89.353,40c-2.028,0-12.707.851-11.883,18.854,0,0,.135,10.267-5.068,13.126,0,0,1.4-.095,3.273-.128a15.252,15.252,0,0,0-9,13.877,8.312,8.312,0,0,0,.863,4.08c1.391,2.5,4.367,2.931,8.175,2.931,1.882,0,3.965-.1,6.157-.1H97.518c2.193,0,4.276.1,6.158.1,3.808,0,6.784-.427,8.177-2.931a8.325,8.325,0,0,0,.863-4.08A15.132,15.132,0,0,0,107.575,74.358ZM86.118,55.652a40.674,40.674,0,0,0,9.761-5.334.848.848,0,0,0,.079-.057s.1.139.235.375c.465.8,1.462,3.177-.423,4.266l3.435.437h.065l.63.117a11.676,11.676,0,0,1-.116,1.467,19.165,19.165,0,0,1-1.882,7.09c-1.845,3.7-4.833,6.106-8.208,6.106-5.144,0-9.4-5.59-10.062-12.838A40.055,40.055,0,0,0,86.118,55.652Zm-4.965,32.5a.964.964,0,0,1-.676.277H79.022a.975.975,0,0,1-.974-.975v-.022a.976.976,0,0,1,.973-.952h1.455a.964.964,0,0,1,.407.091c.344-.072.4-.171.434-.226a6.022,6.022,0,0,0,.219-2.241,11.479,11.479,0,0,0-.87-4.1,1.139,1.139,0,0,1-.568-.549c-.954-2-2.245-3.235-3.368-3.235-1.147,0-2.5,1.338-3.449,3.409a1.145,1.145,0,0,1-.661.6,11.23,11.23,0,0,0-.785,3.878,6.042,6.042,0,0,0,.237,2.246c.033.054.1.161.49.233a.977.977,0,0,1,.437-.1h1.455a.976.976,0,0,1,.972.917l0,.006v.051a.975.975,0,0,1-.974.975H73a.969.969,0,0,1-.648-.251,2.254,2.254,0,0,1-1.645-.978,5.969,5.969,0,0,1-.48-3.1,12.936,12.936,0,0,1,.939-4.574,1.13,1.13,0,0,1,.034-.859,10.671,10.671,0,0,1,2.193-3.232,5.814,5.814,0,0,1,1.556-1.095,1.965,1.965,0,0,1,.98-1.117,6.754,6.754,0,0,1,1.827-3.544,6.345,6.345,0,0,1,4.584-2.144v1.608c-2.451,0-4.434,2.412-4.791,4.134a1.956,1.956,0,0,1,.854,1.008,8.175,8.175,0,0,1,3.76,4.173,1.137,1.137,0,0,1,.007.969,13.155,13.155,0,0,1,.974,4.673C83.144,86.365,83.047,87.78,81.153,88.155Zm8.541-7.218-3.516-5.713c-2.555-.579-4.528-1.772-5.325-3.243,2.063.179,3.808.557,4.261,1.3l-1.937-4.32a8.677,8.677,0,0,0,12.9.127L94.728,71.9c.412-.675,1.846-.9,3.6-.9.181,0,.365,0,.552.007-.316,1.911-2.567,3.516-5.669,4.22Zm14.364-2.394a3.515,3.515,0,1,1-3.8-5.1,5.273,5.273,0,0,0-3.182-4.054L96.8,69.3l.092-.279.319-.971.092-.279.279.092a6.343,6.343,0,0,1,3.685,3.468,7.556,7.556,0,0,1,.646,2.175,3.507,3.507,0,0,1,2.151,5.041Z" fill="#c0031b"/>
    <circle id="Ellipse_2" data-name="Ellipse 2" cx="1.758" cy="1.758" r="1.758" transform="translate(99.2 75.126)" fill="#c0031b"/>
  </g>
</svg>
