<svg xmlns="http://www.w3.org/2000/svg" width="28.8" height="28.851" viewBox="0 0 28.8 28.851">
  <path id="Icon_feather-phone-call" data-name="Icon feather-phone-call" d="M19.7,6.612A6.39,6.39,0,0,1,24.75,11.66M19.7,1.5a11.5,11.5,0,0,1,10.16,10.147m-1.278,10.2v3.834A2.556,2.556,0,0,1,25.8,28.234a25.29,25.29,0,0,1-11.029-3.923A24.92,24.92,0,0,1,7.1,16.643,25.29,25.29,0,0,1,3.178,5.564,2.556,2.556,0,0,1,5.721,2.778H9.555a2.556,2.556,0,0,1,2.556,2.2,16.408,16.408,0,0,0,.895,3.591,2.556,2.556,0,0,1-.575,2.7l-1.623,1.623a20.447,20.447,0,0,0,7.668,7.668L20.1,18.931a2.556,2.556,0,0,1,2.7-.575,16.409,16.409,0,0,0,3.591.895A2.556,2.556,0,0,1,28.583,21.845Z" transform="translate(-2.167 -0.396)" fill="none" stroke="#fff" stroke-linecap="round" stroke-linejoin="round" stroke-width="2"/>
</svg>
