<svg xmlns="http://www.w3.org/2000/svg" width="1603.5" height="198.951" viewBox="0 0 1603.5 198.951">
  <path id="Path_22" data-name="Path 22" d="M668.208-257.463c39.544,1.739,72.08,171.036,122.244,172.123S904.932-238.121,948.466-235.3s90.579,99.629,130.829,112.141,80.366-37.437,110.667-37.069,70.775,43.365,108.491,43.087c49.21,2.579,63.213-59.828,117.807-62.843,48.847-.159,68.319,28.163,102,52.369,35.121,24.206,91.778,63.377,88.609,69.061l-1.1,0-.359-.565c-9.2-11.637-56.421-44.275-87.151-65.455-33.685-24.206-53.157-52.528-102-52.369-54.593,3.015-68.6,65.422-117.807,62.843-37.717.277-78.191-42.719-108.491-43.088s-70.418,49.581-110.667,37.069S992-229.431,948.466-232.257,840.617-81.215,790.452-82.3s-82.7-170.384-122.244-172.123-44.753,58.461-73.563,75.63-60.807,9.128-99.3,27.383-74.2,88.669-131.64,82.149S200.75-207.7,150.711-190.53C122.565-180.872,41.584-122.874,8.119-67.36L5.186-62.078l-1.686,0L8.119-70.4c33.466-55.514,114.446-113.512,142.593-123.17,50.038-17.169,155.557,114.748,213,121.268s93.151-63.894,131.64-82.149,70.487-10.214,99.3-27.383S628.664-259.2,668.208-257.463Z" transform="translate(-3.5 257.5)" fill="rgba(170,94,193,0.9)" fill-rule="evenodd"/>
</svg>
