<svg xmlns="http://www.w3.org/2000/svg" width="30.56" height="30.56" viewBox="0 0 30.56 30.56">
  <g id="Group_26" data-name="Group 26" transform="translate(-35.06 -35.06)">
    <path id="Path_146" data-name="Path 146" d="M38.308,38.308a11.091,11.091,0,1,1,0,15.685,11.092,11.092,0,0,1,0-15.685Zm1.569,1.569a8.873,8.873,0,1,0,12.548,0A8.874,8.874,0,0,0,39.877,39.877Z" fill="#003f8e" fill-rule="evenodd"/>
    <path id="Path_147" data-name="Path 147" d="M87.048,57.318a7.4,7.4,0,0,0-7.394-7.394V51.7h0a5.62,5.62,0,0,1,5.62,5.62Z" transform="translate(-33.503 -11.167)" fill="#003f8e" fill-rule="evenodd"/>
    <path id="Path_148" data-name="Path 148" d="M103.138,76.087a.887.887,0,1,0,.887.887A.887.887,0,0,0,103.138,76.087Z" transform="translate(-50.481 -30.823)" fill="#003f8e" fill-rule="evenodd"/>
    <path id="Path_149" data-name="Path 149" d="M76.974,49.924a.887.887,0,1,0,.887.887A.887.887,0,0,0,76.974,49.924Z" transform="translate(-30.823 -11.167)" fill="#003f8e" fill-rule="evenodd"/>
    <path id="Path_150" data-name="Path 150" d="M122.9,119.766l5.71,5.71a2.225,2.225,0,0,1,0,3.137h0a2.225,2.225,0,0,1-3.137,0l-5.71-5.71Z" transform="translate(-63.64 -63.64)" fill="#003f8e" fill-rule="evenodd"/>
    <path id="Path_151" data-name="Path 151" d="M120.279,117.142l-4.063-4.063a2.225,2.225,0,0,0-3.137,0h0a2.225,2.225,0,0,0,0,3.137l4.063,4.063Z" transform="translate(-58.129 -58.13)" fill="#003f8e" fill-rule="evenodd"/>
    <rect id="Rectangle_4" data-name="Rectangle 4" width="2.366" height="4.669" transform="translate(52.133 53.807) rotate(-45.004)" fill="#003f8e"/>
  </g>
</svg>
