<svg id="value-ico-2" xmlns="http://www.w3.org/2000/svg" width="52.691" height="52.689" viewBox="0 0 52.691 52.689">
  <path id="Path_5374" data-name="Path 5374" d="M649.472,579.879a14.621,14.621,0,0,0-20.679,0c-3.647,3.647-3.309,8.674-3.009,13.132.071,1.037.138,2.018.152,2.949l-2.661,2.666a.88.88,0,0,0,0,1.248l6.5,6.5a.879.879,0,0,0,.625.258h.02a.957.957,0,0,0,.607-.261l2.7-2.724c.693.009,1.444.049,2.278.091.975.051,2.188.113,3.4.113,3.152,0,7.146-.375,10.067-3.3a14.62,14.62,0,0,0,0-20.678ZM639.4,602.09c-1.12,0-2.221-.056-3.31-.111-.965-.049-1.878-.1-2.734-.1a.877.877,0,0,0-.629.261L630.4,604.5l-5.25-5.25,2.3-2.3a.876.876,0,0,0,.257-.623c0-1.14-.084-2.367-.159-3.455-.286-4.258-.583-8.661,2.5-11.74a12.856,12.856,0,1,1,18.181,18.181C645.757,601.773,642.213,602.09,639.4,602.09Z" transform="translate(-612.962 -563.545)" fill="#1a1a1a"/>
  <path id="Path_5375" data-name="Path 5375" d="M621.084,619.982a.883.883,0,0,0-1.248,1.25l1.551,1.549a.882.882,0,0,0,1.249,0,.886.886,0,0,0,0-1.247Z" transform="translate(-611.841 -577.932)" fill="#1a1a1a"/>
  <path id="Path_5376" data-name="Path 5376" d="M621.541,614.036a.883.883,0,0,0-1.248,1.249l5.551,5.552a.879.879,0,0,0,1.247,0,.879.879,0,0,0,0-1.248Z" transform="translate(-611.99 -575.993)" fill="#1a1a1a"/>
  <path id="Path_5377" data-name="Path 5377" d="M646.59,599.433l-5.205-.14.14-5.206a.88.88,0,0,0-.242-.631.9.9,0,0,0-.655-.276.882.882,0,0,0-.869.86l-.162,6.089a.884.884,0,0,0,.86.9l6.11.165a.883.883,0,0,0,.024-1.765Z" transform="translate(-618.367 -569.278)" fill="#1a1a1a"/>
  <path id="Path_5378" data-name="Path 5378" d="M623.551,574.048a.882.882,0,0,0,.623-1.508l-3.5-3.5a.883.883,0,0,0-1.248,1.25l3.506,3.5A.883.883,0,0,0,623.551,574.048Z" transform="translate(-611.706 -561.324)" fill="#1a1a1a"/>
  <path id="Path_5379" data-name="Path 5379" d="M668.9,617.271a.883.883,0,0,0-1.247,1.25l3.5,3.5a.875.875,0,0,0,.625.258.882.882,0,0,0,.623-1.508Z" transform="translate(-627.432 -577.048)" fill="#1a1a1a"/>
  <path id="Path_5380" data-name="Path 5380" d="M646.763,564.435h0a.883.883,0,0,0,.882-.883l0-4.957a.884.884,0,0,0-1.767,0l0,4.956A.886.886,0,0,0,646.763,564.435Z" transform="translate(-620.415 -557.715)" fill="#1a1a1a"/>
  <path id="Path_5381" data-name="Path 5381" d="M646.757,625.923a.887.887,0,0,0-.882.884l0,4.955a.883.883,0,0,0,1.765,0l0-4.956A.887.887,0,0,0,646.757,625.923Z" transform="translate(-620.415 -579.953)" fill="#1a1a1a"/>
  <path id="Path_5382" data-name="Path 5382" d="M682.146,595.492l-4.955,0a.883.883,0,1,0,0,1.766l4.955-.005a.883.883,0,0,0,0-1.765Z" transform="translate(-630.337 -570.032)" fill="#1a1a1a"/>
  <path id="Path_5383" data-name="Path 5383" d="M613.935,595.492l-4.956,0a.883.883,0,0,0,0,1.766l4.956-.005a.883.883,0,1,0,0-1.765Z" transform="translate(-608.098 -570.032)" fill="#1a1a1a"/>
  <path id="Path_5384" data-name="Path 5384" d="M668.281,574.05a.873.873,0,0,0,.625-.259l3.5-3.505a.883.883,0,1,0-1.25-1.247l-3.5,3.5a.883.883,0,0,0,.624,1.507Z" transform="translate(-627.432 -561.322)" fill="#1a1a1a"/>
</svg>
