<svg id="value-ico-7" xmlns="http://www.w3.org/2000/svg" width="48.935" height="35.835" viewBox="0 0 48.935 35.835">
  <path id="Path_5385" data-name="Path 5385" d="M2372.959,592.223a.843.843,0,0,0-.186-.277l-3.358-3.331a.83.83,0,0,0-.007-1.181l3.332-3.361.028-.032.013-.026a.834.834,0,0,0,.14-.216.892.892,0,0,0,.051-.223l.005-.025.009-.015v-.012l.016-.03-.017-.05a.876.876,0,0,0-.523-.752.664.664,0,0,0-.244-.054l-.056-.013-5.7-.026a.84.84,0,0,0-.277.063.777.777,0,0,0-.235.151l-.015.006-4.353,4.389-1.685.006a17.915,17.915,0,1,0,.008,1.7l1.791-.007,4.285,4.241a.722.722,0,0,0,.225.148l.049.03h.025a1.023,1.023,0,0,0,.261.043l5.678.021a.848.848,0,0,0,.233-.047l-.05-.2.125.169a.933.933,0,0,0,.249-.169.341.341,0,0,0,.057-.08.806.806,0,0,0,.124-.2.766.766,0,0,0,.051-.23l.015-.063v-.029A.847.847,0,0,0,2372.959,592.223Zm-6.062-.549-2.8-2.776,3.175-.013,2.827,2.8Zm3.212-7.359-2.848,2.871-3.277.013,2.876-2.9Zm-28.1,2.973a.849.849,0,1,0,.007,1.7l2.828-.011a2.105,2.105,0,0,1-.073.227,2.977,2.977,0,0,1-2.761,1.891,2.958,2.958,0,0,1-2.755-4.022,2.976,2.976,0,0,1,2.761-1.892,2.95,2.95,0,0,1,2.821,2.1Zm4.573-.019a4.644,4.644,0,1,0-.225,2.545,4.584,4.584,0,0,0,.233-.845l2.51-.011a7.084,7.084,0,0,1-.428,1.751,7.189,7.189,0,0,1-6.667,4.567h0a7.144,7.144,0,0,1-6.651-9.71,7.188,7.188,0,0,1,6.667-4.567,7.128,7.128,0,0,1,7.067,6.26Zm4.213-.016a8.892,8.892,0,0,0-5.6-7.359,8.778,8.778,0,0,0-3.175-.594,8.9,8.9,0,0,0-8.253,5.654,8.837,8.837,0,0,0,8.236,12.02,8.9,8.9,0,0,0,8.253-5.654,8.784,8.784,0,0,0,.554-2.369l2.864-.011a11.586,11.586,0,0,1-.751,3.41,11.779,11.779,0,0,1-10.926,7.485,11.7,11.7,0,0,1-10.9-15.912,11.781,11.781,0,0,1,10.927-7.484,11.682,11.682,0,0,1,11.637,10.8Zm4.573-.019a13.483,13.483,0,1,0,.008,1.7l2.821-.011a16.112,16.112,0,0,1-1.053,5.057,16.333,16.333,0,0,1-15.149,10.377,16.23,16.23,0,0,1-15.111-22.061,16.333,16.333,0,0,1,15.149-10.377,16.209,16.209,0,0,1,16.165,15.3Z" transform="translate(-2324.09 -570.219)" fill="#1a1a1a"/>
</svg>
