<svg id="value-ico-5" xmlns="http://www.w3.org/2000/svg" width="43.089" height="43.088" viewBox="0 0 43.089 43.088">
  <path id="Path_5386" data-name="Path 5386" d="M1672.264,588.047a14.784,14.784,0,0,0,.1-1.665,14.565,14.565,0,0,0-14.564-14.564,14.831,14.831,0,0,0-1.664.1l-6.841-6.839a.815.815,0,0,0-1.152,0l-11.648,11.648a.814.814,0,0,0,0,1.152l6.839,6.84a14.751,14.751,0,0,0-.1,1.665,14.566,14.566,0,0,0,14.564,14.564,14.794,14.794,0,0,0,1.692-.1.765.765,0,0,0,.115.144l6.7,6.7a.816.816,0,0,0,1.153,0l11.648-11.648a.816.816,0,0,0,0-1.153ZM1638.222,577.3l10.5-10.495,5.465,5.466a14.577,14.577,0,0,0-10.494,10.494ZM1668.1,596.68a14.5,14.5,0,0,0,3.811-6.683l5.466,5.467-10.495,10.495-5.465-5.466A14.494,14.494,0,0,0,1668.1,596.68Zm2.635-10.3a12.932,12.932,0,1,1-3.788-9.145A12.848,12.848,0,0,1,1670.73,586.382Z" transform="translate(-1636.253 -564.838)" fill="#1a1a1a"/>
  <path id="Path_5387" data-name="Path 5387" d="M1663.156,581.262a10.474,10.474,0,1,0,7.407,3.068A10.409,10.409,0,0,0,1663.156,581.262Zm0,19.5a9.021,9.021,0,1,1,6.378-2.642A8.958,8.958,0,0,1,1663.156,600.757Z" transform="translate(-1641.611 -570.193)" fill="#1a1a1a"/>
  <path id="Path_5388" data-name="Path 5388" d="M1674.511,592.592h-6v-6a.7.7,0,0,0-1.4,0v6.7a.7.7,0,0,0,.7.7h6.7a.7.7,0,1,0,0-1.4Z" transform="translate(-1646.313 -571.702)" fill="#1a1a1a"/>
</svg>
