<svg xmlns="http://www.w3.org/2000/svg" width="30.825" height="59.983" viewBox="0 0 30.825 59.983">
  <g id="value-arrow" transform="translate(-357.759 -285.531)">
    <path id="Path_5342" data-name="Path 5342" d="M500.654,383.947,471,354.293v2.7h0v14.153l12.131,12.805L471,397.426v13.479h0v3.371Z" transform="translate(-112.07 -68.762)" fill="#c0031b"/>
    <path id="Path_5358" data-name="Path 5358" d="M470.273,406.024a1.011,1.011,0,0,1-.714-1.725l12.09-12.091-12.09-12.09a1.011,1.011,0,1,1,1.429-1.429l12.805,12.805a1.011,1.011,0,0,1,0,1.429l-12.805,12.8A1,1,0,0,1,470.273,406.024Z" transform="translate(-111.504 -76.619)" fill="#1a1a1a"/>
  </g>
</svg>
