<svg id="value-ico-3" xmlns="http://www.w3.org/2000/svg" width="48.849" height="39.728" viewBox="0 0 48.849 39.728">
  <path id="Path_5395" data-name="Path 5395" d="M990.5,572.026l-.012-.011a2.722,2.722,0,0,0-3.828-3.824l-.018-.018-6.04,6.039a4.045,4.045,0,0,0-8.042.625,3.642,3.642,0,0,0,.071.7l-3.511-1.621a.793.793,0,0,0-.344-.077.813.813,0,0,0-.14.012l-.01-.027-20.045,8.7,8.226,8.222-3.525,3.524a2.93,2.93,0,0,0-.861,2.106,2.992,2.992,0,0,0,.884,2.112,3.251,3.251,0,0,0,2.124.935c.053,0,.191,0,.207,0a1.936,1.936,0,0,0,0,.206,3.281,3.281,0,0,0,.94,2.126,3,3,0,0,0,2.124.894,2.945,2.945,0,0,0,2.092-.878l29.581-29.589Zm-33.193,27.517a1.215,1.215,0,0,1,.329-.942l9.838-9.836-1.184-1.183-9.837,9.835a1.2,1.2,0,0,1-.86.336l-.082,0a1.566,1.566,0,0,1-1.022-.445,1.344,1.344,0,0,1-.4-.936,1.277,1.277,0,0,1,.377-.917l14.895-14.893a.837.837,0,0,0-.592-1.429.827.827,0,0,0-.59.246l-6.409,6.407a1.312,1.312,0,0,1-.831.373l-.079,0a.906.906,0,0,1-.646-.251,1.059,1.059,0,0,1,0-1.5l8.735-8.735,5.314,2.451a4.007,4.007,0,0,0,4.96-.2l.017.018,8.369-8.369a1.058,1.058,0,0,1,1.5,1.5l-.14.156-29.357,29.365a1.279,1.279,0,0,1-.908.381,1.327,1.327,0,0,1-.94-.4A1.575,1.575,0,0,1,957.309,599.542Zm7.757-22.351-6.216,6.215-.123.158.018.018a2.674,2.674,0,0,0-.514,1.575,2.709,2.709,0,0,0,.8,1.931,2.432,2.432,0,0,0,.872.561l-1.911,1.911-6.484-6.483Zm9.866-4.036a2.379,2.379,0,1,1,1.682,4.062,3.04,3.04,0,0,1-.4-.029l-1.05-.479-.061-.046a1.739,1.739,0,0,1-.171-.143,2.379,2.379,0,0,1,0-3.365Z" transform="translate(-948.582 -567.591)" fill="#1a1a1a"/>
  <path id="Path_5396" data-name="Path 5396" d="M1006.4,598.478a8.68,8.68,0,0,0-6.23,2.657.812.812,0,0,0-.17-.156,8.672,8.672,0,0,0-13.492,6.946,8.705,8.705,0,0,0-7.843,8.627.837.837,0,1,0,1.674,0,7.008,7.008,0,0,1,7-7,.838.838,0,0,0,.836-.837.78.78,0,0,1,0-.528,7,7,0,0,1,10.893-5.816.729.729,0,0,0,.075.043,8.6,8.6,0,0,0-1.416,4.735.836.836,0,1,0,1.673,0,7.008,7.008,0,0,1,7-7,.836.836,0,1,0,0-1.672Z" transform="translate(-958.391 -577.661)" fill="#1a1a1a"/>
</svg>
