<svg id="value-ico-6" xmlns="http://www.w3.org/2000/svg" width="33.428" height="44.834" viewBox="0 0 33.428 44.834">
  <path id="Path_5397" data-name="Path 5397" d="M2007.225,566.6a.93.93,0,0,0-1.314,0l-21.175,21.175a.926.926,0,0,0,0,1.314l10.394,10.393a.927.927,0,0,0,1.314,0l21.176-21.175a.933.933,0,0,0,0-1.314Zm8.423,11.051-19.861,19.861-9.081-9.08,19.862-19.86Z" transform="translate(-1984.462 -566.328)" fill="#1a1a1a"/>
  <path id="Path_5398" data-name="Path 5398" d="M2017.1,591.086a.924.924,0,0,0-.656.272l-20.006,20-9.222-9.223a.929.929,0,0,0-1.313,1.313l9.879,9.88a.921.921,0,0,0,.657.272.934.934,0,0,0,.657-.271l20.661-20.661a.929.929,0,0,0-.656-1.586Z" transform="translate(-1984.844 -574.4)" fill="#1a1a1a"/>
  <path id="Path_5399" data-name="Path 5399" d="M2017.1,599.437a.922.922,0,0,0-.657.273l-20,20-9.223-9.223a.929.929,0,0,0-1.313,1.314l9.879,9.88a.929.929,0,0,0,1.314,0l20.662-20.66a.93.93,0,0,0-.657-1.587Z" transform="translate(-1984.844 -577.123)" fill="#1a1a1a"/>
  <path id="Path_5400" data-name="Path 5400" d="M2006.22,583.633a4.358,4.358,0,0,0-4.457,4.454,5.8,5.8,0,0,0,5.653,5.648,4.36,4.36,0,0,0,4.456-4.455,5.8,5.8,0,0,0-5.652-5.646Zm3.954,5.646a2.669,2.669,0,0,1-2.762,2.761,4.109,4.109,0,0,1-3.952-3.952,2.669,2.669,0,0,1,2.76-2.761,4.112,4.112,0,0,1,3.954,3.953Z" transform="translate(-1990.103 -571.97)" fill="#1a1a1a"/>
</svg>
