<svg id="value-ico-4" xmlns="http://www.w3.org/2000/svg" width="41.003" height="41.003" viewBox="0 0 41.003 41.003">
  <path id="Path_5392" data-name="Path 5392" d="M1333.4,582.186h-2.149a1.459,1.459,0,0,1-1.357-.919l-.114-.287a1.439,1.439,0,0,1,.327-1.566l1.516-1.516a3.091,3.091,0,0,0,0-4.367l-2.281-2.281a3.09,3.09,0,0,0-4.366,0l-1.419,1.419a1.48,1.48,0,0,1-1.038.431,1.379,1.379,0,0,1-.557-.116c-.129-.057-.26-.112-.391-.164a1.431,1.431,0,0,1-.884-1.343v-2a3.091,3.091,0,0,0-3.088-3.088h-3.225a3.092,3.092,0,0,0-3.088,3.088v2a1.432,1.432,0,0,1-.883,1.343c-.132.053-.262.108-.391.164a1.379,1.379,0,0,1-.558.115,1.482,1.482,0,0,1-1.038-.43L1307,571.249a3.09,3.09,0,0,0-4.367,0l-2.28,2.281a3.089,3.089,0,0,0,0,4.367l1.516,1.516a1.441,1.441,0,0,1,.326,1.566c-.04.1-.078.191-.115.287a1.456,1.456,0,0,1-1.356.919h-2.149a3.091,3.091,0,0,0-3.087,3.088V588.5a3.091,3.091,0,0,0,3.087,3.088h2.347a1.449,1.449,0,0,1,1.339.879l.057.131a1.454,1.454,0,0,1-.305,1.617l-1.661,1.661a3.089,3.089,0,0,0,0,4.367l2.281,2.281a3.091,3.091,0,0,0,4.366,0l1.76-1.76a1.441,1.441,0,0,1,1.026-.425,1.549,1.549,0,0,1,.589.118,1.455,1.455,0,0,1,.915,1.354V604.3a3.092,3.092,0,0,0,3.088,3.088h3.225a3.091,3.091,0,0,0,3.088-3.088v-2.488a1.462,1.462,0,0,1,.945-1.366,1.456,1.456,0,0,1,1.584.319l1.76,1.76a3.09,3.09,0,0,0,4.366,0l2.281-2.281a3.09,3.09,0,0,0,0-4.367l-1.661-1.661a1.451,1.451,0,0,1-.305-1.616l.059-.135a1.446,1.446,0,0,1,1.338-.876h2.347a3.091,3.091,0,0,0,3.087-3.088v-3.226A3.091,3.091,0,0,0,1333.4,582.186Zm-5.177,9.641-.052.121a3.063,3.063,0,0,0,.644,3.414l1.661,1.661a1.469,1.469,0,0,1,0,2.072l-2.281,2.281a1.468,1.468,0,0,1-2.072,0l-1.76-1.76a3.05,3.05,0,0,0-2.172-.9,3.156,3.156,0,0,0-1.2.237,3.071,3.071,0,0,0-1.929,2.858V604.3a1.467,1.467,0,0,1-1.465,1.466h-3.225a1.468,1.468,0,0,1-1.466-1.466v-2.488a3.13,3.13,0,0,0-3.12-3.1,3.058,3.058,0,0,0-2.177.9l-1.76,1.76a1.468,1.468,0,0,1-2.072,0L1301.5,599.1a1.465,1.465,0,0,1,0-2.072l1.661-1.661a3.064,3.064,0,0,0,.645-3.414l-.052-.12a3.068,3.068,0,0,0-2.831-1.864h-2.347a1.467,1.467,0,0,1-1.465-1.465v-3.226a1.467,1.467,0,0,1,1.465-1.465h2.149a3.091,3.091,0,0,0,2.87-1.958l.1-.256a3.056,3.056,0,0,0-.681-3.329l-1.516-1.516a1.468,1.468,0,0,1,0-2.072l2.281-2.281a1.465,1.465,0,0,1,2.072,0l1.419,1.419a3.119,3.119,0,0,0,2.189.9,2.983,2.983,0,0,0,1.205-.251c.114-.05.229-.1.347-.146a3.047,3.047,0,0,0,1.9-2.847v-2a1.468,1.468,0,0,1,1.466-1.466h3.225a1.467,1.467,0,0,1,1.465,1.466v2a3.048,3.048,0,0,0,1.9,2.847c.116.047.232.1.347.146a2.984,2.984,0,0,0,1.2.25,3.115,3.115,0,0,0,2.19-.9l1.419-1.419a1.465,1.465,0,0,1,2.072,0l2.281,2.281a1.469,1.469,0,0,1,0,2.072l-1.516,1.516a3.057,3.057,0,0,0-.681,3.329l.1.256a3.09,3.09,0,0,0,2.87,1.958h2.149a1.467,1.467,0,0,1,1.465,1.465V588.5a1.467,1.467,0,0,1-1.465,1.465h-2.347A3.067,3.067,0,0,0,1328.222,591.827Z" transform="translate(-1295.484 -566.385)" fill="#1a1a1a"/>
  <path id="Path_5393" data-name="Path 5393" d="M1321.6,581.826a.812.812,0,0,0-.811-.811,10.377,10.377,0,0,0-9.153,15.265.732.732,0,0,0,.088.129,2.931,2.931,0,1,0,2.437-1.281,2.958,2.958,0,0,0-1.17.242,8.754,8.754,0,0,1,7.8-12.732A.812.812,0,0,0,1321.6,581.826Zm-6.542,15.294a1.3,1.3,0,1,1-.915-.378A1.3,1.3,0,0,1,1315.06,597.119Z" transform="translate(-1300.347 -571.155)" fill="#1a1a1a"/>
  <path id="Path_5394" data-name="Path 5394" d="M1334.5,586.718a2.9,2.9,0,1,0-2.314,1.161,2.871,2.871,0,0,0,1.008-.186,8.754,8.754,0,0,1-7.77,12.785.811.811,0,0,0,0,1.623,10.377,10.377,0,0,0,9.153-15.263A.753.753,0,0,0,1334.5,586.718Zm-3.228-.84a1.3,1.3,0,1,1,.914.378A1.282,1.282,0,0,1,1331.272,585.879Z" transform="translate(-1304.981 -571.492)" fill="#1a1a1a"/>
</svg>
