<svg id="value-ico-1" xmlns="http://www.w3.org/2000/svg" width="38.942" height="39.256" viewBox="0 0 38.942 39.256">
  <path id="Path_5389" data-name="Path 5389" d="M303.535,611.4a.868.868,0,0,0-1.227,1.227l8.228,8.229a.868.868,0,0,0,1.228-1.228Z" transform="translate(-273.075 -581.851)" fill="#1a1a1a"/>
  <path id="Path_5390" data-name="Path 5390" d="M284.85,592.56a14.955,14.955,0,0,0-.445-20.53,14.844,14.844,0,1,0-.8,21.741l1.9,1.905a.868.868,0,0,0,1.227-1.228Zm-10.945-23.144a13.116,13.116,0,1,1-9.272,3.842A13.028,13.028,0,0,1,273.906,569.417Z" transform="translate(-259.056 -567.681)" fill="#1a1a1a"/>
  <path id="Path_5391" data-name="Path 5391" d="M274.417,576.274a.862.862,0,0,0,.366-.081,9.171,9.171,0,0,1,5.97-.6.868.868,0,0,0,.4-1.69,10.926,10.926,0,0,0-7.1.716.869.869,0,0,0-.421,1.152A.871.871,0,0,0,274.417,576.274Z" transform="translate(-263.781 -569.614)" fill="#1a1a1a"/>
</svg>
