<svg xmlns="http://www.w3.org/2000/svg" width="51" height="51" viewBox="0 0 51 51">
  <g id="healthy_lifestyle" data-name="healthy lifestyle" transform="translate(-158.846 -220.385)">
    <path id="Path_317" data-name="Path 317" d="M183.067,255.912,194.928,244a2.423,2.423,0,0,0,.69-1.87l-1.7-11.312a2.4,2.4,0,0,0-2.56-2.223,2.465,2.465,0,0,0-2.209,2.566l1.612,10.219-4.916,4.941c-.555.559-1.216.8-1.77.243a1.356,1.356,0,0,1,.066-1.947l3.032-3.042a2.341,2.341,0,0,0,.056-3.345,2.384,2.384,0,0,0-3.381,0l-3.287,3.3-.854.781c-.7.636-1.461,1.332-2.207,2.08a15.433,15.433,0,0,0-3.508,7.963l-1.793,9.559a.618.618,0,0,0,.43.765h7.759a1.119,1.119,0,0,0,1.145-.574C181.668,261.736,183.067,255.912,183.067,255.912Z" transform="translate(14.222 8.697)" fill="#c0031b"/>
    <path id="Path_318" data-name="Path 318" d="M171.4,255.912,159.54,244a2.382,2.382,0,0,1-.686-1.87l1.7-11.312a2.4,2.4,0,0,1,2.556-2.223,2.468,2.468,0,0,1,2.211,2.566L163.7,241.381l4.921,4.941c.553.559,1.211.8,1.766.243a1.354,1.354,0,0,0-.069-1.947l-3.032-3.042a2.344,2.344,0,0,1-.052-3.345,2.384,2.384,0,0,1,3.381,0l3.287,3.3.854.781c.7.636,1.461,1.332,2.2,2.08a15.4,15.4,0,0,1,3.51,7.963l1.8,9.559a.62.62,0,0,1-.428.765h-7.763a1.111,1.111,0,0,1-1.141-.574C172.8,261.736,171.4,255.912,171.4,255.912Z" transform="translate(0 8.697)" fill="#c0031b"/>
    <path id="Path_319" data-name="Path 319" d="M195.281,230.372a9.985,9.985,0,0,0-9.944-9.987,9.855,9.855,0,0,0-5.965,2.009,9.852,9.852,0,0,0-5.967-2.009,9.976,9.976,0,0,0-9.944,9.987c0,12.678,13.955,21.234,14.544,21.6a2.665,2.665,0,0,0,2.73,0C181.326,251.606,195.281,243.049,195.281,230.372Z" transform="translate(4.974 0)" fill="#c0031b"/>
  </g>
</svg>
