<svg xmlns="http://www.w3.org/2000/svg" width="107" height="85.6" viewBox="0 0 107 85.6">
  <path id="Icon_awesome-school" data-name="Icon awesome-school" d="M0,37.45V82.925A2.674,2.674,0,0,0,2.675,85.6H16.05V32.1H5.35A5.351,5.351,0,0,0,0,37.45Zm60.188-8.025H56.175V22.738A1.337,1.337,0,0,0,54.838,21.4H52.163a1.337,1.337,0,0,0-1.338,1.338v10.7a1.337,1.337,0,0,0,1.338,1.338h8.025a1.337,1.337,0,0,0,1.338-1.338V30.763A1.337,1.337,0,0,0,60.188,29.425Zm23.03-10.693L56.468.9a5.353,5.353,0,0,0-5.935,0L23.782,18.732A5.35,5.35,0,0,0,21.4,23.182V85.6H42.8V61.525a2.674,2.674,0,0,1,2.675-2.675h16.05A2.674,2.674,0,0,1,64.2,61.525V85.6H85.6V23.184a5.351,5.351,0,0,0-2.382-4.452ZM53.5,42.8A13.375,13.375,0,1,1,66.875,29.425,13.376,13.376,0,0,1,53.5,42.8Zm48.15-10.7H90.95V85.6h13.375A2.674,2.674,0,0,0,107,82.925V37.45A5.351,5.351,0,0,0,101.65,32.1Z" transform="translate(0 0)" fill="#003f8e"/>
</svg>
