<svg xmlns="http://www.w3.org/2000/svg" width="107" height="97.273" viewBox="0 0 107 97.273">
  <path id="Icon_material-live-tv" data-name="Icon material-live-tv" d="M98.773,22.455H61.858l16-16L74.455,3,55,22.455,35.545,3,32.092,6.453l16.05,16H11.227A9.725,9.725,0,0,0,1.5,32.182V90.545a9.756,9.756,0,0,0,9.727,9.727H98.773a9.756,9.756,0,0,0,9.727-9.727V32.182A9.725,9.725,0,0,0,98.773,22.455Zm0,68.091H11.227V32.182H98.773ZM40.409,41.909V80.818L74.455,61.364Z" transform="translate(-1.5 -3)" fill="#003f8e"/>
</svg>
