<svg xmlns="http://www.w3.org/2000/svg" width="107" height="95.111" viewBox="0 0 107 95.111">
  <path id="Icon_awesome-clinic-medical" data-name="Icon awesome-clinic-medical" d="M53.5,21.364l-40.594,35.8a8.6,8.6,0,0,1-1.016.622V92.138a2.972,2.972,0,0,0,2.972,2.972H92.138a2.972,2.972,0,0,0,2.972-2.972V57.791a8.667,8.667,0,0,1-.977-.594ZM71.333,69.847a1.486,1.486,0,0,1-1.486,1.486h-10.4v10.4a1.486,1.486,0,0,1-1.486,1.486H49.042a1.486,1.486,0,0,1-1.486-1.486v-10.4h-10.4a1.486,1.486,0,0,1-1.486-1.486V60.931a1.486,1.486,0,0,1,1.486-1.486h10.4v-10.4a1.486,1.486,0,0,1,1.486-1.486h8.916a1.486,1.486,0,0,1,1.486,1.486v10.4h10.4a1.486,1.486,0,0,1,1.486,1.486Zm34.68-25.954L58.469,1.911a7.4,7.4,0,0,0-9.929,0L.986,43.893a2.972,2.972,0,0,0-.225,4.2l3.977,4.425a2.972,2.972,0,0,0,4.2.225l42.6-37.576a2.972,2.972,0,0,1,3.933,0l42.6,37.574a2.972,2.972,0,0,0,4.2-.225l3.975-4.425a2.972,2.972,0,0,0-.227-4.2Z" transform="translate(0.001 0.001)" fill="#003f8e"/>
</svg>
