<svg xmlns="http://www.w3.org/2000/svg" width="107" height="79.197" viewBox="0 0 107 79.197">
  <g id="Group_142" data-name="Group 142" transform="translate(-833.351 -199.032)">
    <path id="Path_298" data-name="Path 298" d="M965.928,239.587l2.284-1.723a17.961,17.961,0,0,1,10.816-3.622h22.433a3.782,3.782,0,0,0,3.782-3.782V202.814a3.782,3.782,0,0,0-3.782-3.782H966.25a3.782,3.782,0,0,0-3.782,3.782v35.05A2.159,2.159,0,0,0,965.928,239.587Zm12.907-30.038a1.845,1.845,0,0,1,2.767-1.6l11.935,6.891a1.845,1.845,0,0,1,0,3.2L981.6,224.929a1.845,1.845,0,0,1-2.767-1.6Z" transform="translate(-71.016 0)" fill="#003f8e"/>
    <path id="Path_299" data-name="Path 299" d="M935.95,263.4h.113l-3.244-1.553V241.619a10.013,10.013,0,0,1-2.376.287h-6.427v15.818H850.663V211.559h34.232v-9.976H848.8a7.922,7.922,0,0,0-7.922,7.922v52.127L837.2,263.4h.554a4.4,4.4,0,0,0-4.4,4.4v7.433a4.4,4.4,0,0,0,4.4,4.4h98.2a4.4,4.4,0,0,0,4.4-4.4V267.8A4.4,4.4,0,0,0,935.95,263.4Zm-42.969,9.259H880.722a3.782,3.782,0,0,1,0-7.564H892.98a3.782,3.782,0,0,1,0,7.564Z" transform="translate(0 -1.403)" fill="#003f8e"/>
    <path id="Path_300" data-name="Path 300" d="M888.782,299.223v1.435h23.734v-1.435a7.694,7.694,0,0,0-7.694-7.694h-8.346A7.694,7.694,0,0,0,888.782,299.223Z" transform="translate(-30.488 -50.875)" fill="#003f8e"/>
    <circle id="Ellipse_1" data-name="Ellipse 1" cx="7.303" cy="7.303" r="7.303" transform="translate(859.842 229.33) rotate(-47.286)" fill="#003f8e"/>
  </g>
</svg>
